<svg xmlns="http://www.w3.org/2000/svg" viewBox="0 0 436.38 407.65"><defs><style>.cls-1{fill:#ebebeb;}.cls-2{fill:#e0e0e0;}.cls-3{fill:#f5f5f5;}.cls-4{fill:#fff;}.cls-5{fill:#fafafa;}.cls-6{fill:#263238;}.cls-7{fill:#e8505b;}.cls-8{opacity:0.1;}.cls-9{fill:#455a64;}.cls-10{opacity:0.3;}.cls-11{fill:#ffbe9d;}.cls-12{opacity:0.5;}.cls-13{opacity:0.4;}</style></defs><title>cadastro</title><g id="Background_Complete" data-name="Background Complete"><path class="cls-1" d="M12.45,393.05v25.07h5.79a35.46,35.46,0,0,1,0-7.95c.56-3,6.84-10.58,6.66-17.12Z" transform="translate(-7.66 -12.68)"/><path class="cls-2" d="M58.77,393.05v25.07h5.79a35.46,35.46,0,0,1,0-7.95c.56-3,6.84-10.58,6.66-17.12Z" transform="translate(-7.66 -12.68)"/><path class="cls-1" d="M104.1,393.05v25.07H98.31a34.83,34.83,0,0,0,0-7.95c-.55-3-6.84-10.58-6.65-17.12Z" transform="translate(-7.66 -12.68)"/><path class="cls-2" d="M144.2,393.05v25.07h-5.79a35.46,35.46,0,0,0,0-7.95c-.56-3-6.84-10.58-6.66-17.12Z" transform="translate(-7.66 -12.68)"/><rect class="cls-3" x="0.86" y="256.6" width="138.72" height="124.57"/><polygon class="cls-2" points="102.21 256.6 103.24 381.17 139.58 381.17 139.58 256.6 102.21 256.6"/><rect class="cls-1" x="7.1" y="265.76" width="89.06" height="31.7"/><rect class="cls-1" x="7.1" y="303.78" width="89.06" height="31.7"/><rect class="cls-1" x="7.1" y="341.8" width="89.06" height="31.7"/><polygon class="cls-2" points="41.24 220.81 37.4 256.45 86.62 256.45 90.7 220.81 41.24 220.81"/><polygon class="cls-4" points="43.27 223.37 39.53 254.56 83.95 254.56 87.54 223.37 43.27 223.37"/><polygon class="cls-1" points="50.74 228.61 48.44 249.31 76.47 249.31 77.91 228.61 50.74 228.61"/><polyline class="cls-1" points="88.94 236.16 99.11 256.6 86.62 256.45 88.94 236.16"/><path class="cls-2" d="M62.55,296a3.26,3.26,0,1,1-3.26-3.25A3.26,3.26,0,0,1,62.55,296Z" transform="translate(-7.66 -12.68)"/><path class="cls-2" d="M62.55,334.35a3.26,3.26,0,1,1-3.26-3.26A3.26,3.26,0,0,1,62.55,334.35Z" transform="translate(-7.66 -12.68)"/><path class="cls-2" d="M62.55,372.74a3.26,3.26,0,1,1-3.26-3.26A3.26,3.26,0,0,1,62.55,372.74Z" transform="translate(-7.66 -12.68)"/><polygon class="cls-2" points="96.02 54.1 17.37 53.33 19.57 155.84 98.21 156.13 96.02 54.1"/><polygon class="cls-5" points="90.95 58.67 22.1 56.88 24.09 149.85 92.92 150.69 90.95 58.67"/><polygon class="cls-1" points="79.2 72.56 33.52 71.8 34.91 136.78 80.55 135.8 79.2 72.56"/><polygon class="cls-3" points="34.91 136.78 79.84 102.42 33.52 71.8 34.91 136.78"/><polygon class="cls-2" points="434.47 0.67 365.47 0 367.39 89.92 436.38 90.18 434.47 0.67"/><polygon class="cls-5" points="430.01 4.68 369.61 3.11 371.36 84.67 431.75 85.41 430.01 4.68"/><polygon class="cls-1" points="419.7 16.86 379.63 16.2 380.85 73.2 420.89 72.34 419.7 16.86"/><polygon class="cls-3" points="380.85 73.2 420.27 43.06 379.63 16.2 380.85 73.2"/><path class="cls-1" d="M364.83,351.45c-.3.88,10,40,10,40l7.06-1.47-9.71-38.53Z" transform="translate(-7.66 -12.68)"/><polygon class="cls-3" points="411.88 333.18 397.76 378.77 406 378.77 419.53 336.41 411.88 333.18"/><polygon class="cls-1" points="424.82 326.12 408.64 378.77 416.88 378.77 432.47 329.36 424.82 326.12"/><polygon class="cls-2" points="362.17 375.53 370.41 404.06 411.88 404.06 419.53 375.53 362.17 375.53"/><path class="cls-2" d="M391.22,388.22a1.31,1.31,0,0,1-.09-.3l-.22-.87-.8-3.37-2.85-12.46c-2.37-10.58-5.65-25.21-9.3-41.55l.25.21H371l.25-.32c3.68,16.35,7,31,9.37,41.59,1.16,5.26,2.1,9.51,2.75,12.49L384,387c.08.37.13.66.18.88a1.77,1.77,0,0,1,0,.31,1.31,1.31,0,0,1-.09-.3c-.06-.22-.13-.51-.23-.87-.19-.8-.46-1.93-.81-3.37-.69-3-1.69-7.21-2.91-12.46-2.43-10.58-5.78-25.21-9.53-41.54l-.07-.32h7.8l0,.2c3.6,16.35,6.82,31,9.15,41.59,1.14,5.26,2.05,9.51,2.69,12.49.31,1.45.54,2.58.71,3.39l.17.88A1.77,1.77,0,0,1,391.22,388.22Z" transform="translate(-7.66 -12.68)"/></g><g id="Floor"><path class="cls-6" d="M431.75,417.94c0,.14-94.95.26-212,.26s-212-.12-212-.26,94.92-.26,212.05-.26S431.75,417.8,431.75,417.94Z" transform="translate(-7.66 -12.68)"/></g><g id="Plants"><path class="cls-6" d="M404.45,145a3.77,3.77,0,0,0-.71-.22,4.94,4.94,0,0,0-2.17,0,7.9,7.9,0,0,0-3.15,1.62,16.65,16.65,0,0,0-3.2,3.73c-2.05,3.14-3.67,7.48-5.55,12.54s-3.92,10.93-5.64,17.63v0a5,5,0,0,1-1.17,1.44,2.27,2.27,0,0,1-1.81.58,3.38,3.38,0,0,1-1.68-1c-.46-.43-.9-.89-1.34-1.35a31,31,0,0,0-2.78-2.71,5.1,5.1,0,0,0-3.5-1.43,4.72,4.72,0,0,0-3.21,2.14,8.05,8.05,0,0,0-1.11,4c-.17,2.86.66,5.75,1.16,8.74s1.13,6.06,1.71,9.19c.29,1.57.59,3.15.89,4.75.14.8.29,1.61.44,2.42a3.11,3.11,0,0,1-.28,2.56,1.26,1.26,0,0,1-1.34.45,3.48,3.48,0,0,1-1.18-.61l-2-1.52a43,43,0,0,0-4.24-2.85,16.11,16.11,0,0,0-4.73-2,5.54,5.54,0,0,0-2.53,0,3.7,3.7,0,0,0-2.05,1.38,8.46,8.46,0,0,0-1.35,5,28.58,28.58,0,0,0,.52,5.42,70.78,70.78,0,0,0,3,10.77,14.11,14.11,0,0,1,.88,2.78,2.09,2.09,0,0,1-.37,1.55,2.65,2.65,0,0,1-.29.29,1,1,0,0,1-.39.23,1.27,1.27,0,0,1-.87-.19,15.64,15.64,0,0,1-2.32-1.84l-2.14-2a30.78,30.78,0,0,0-4.55-3.66,9.69,9.69,0,0,0-2.62-1.2,3.27,3.27,0,0,0-2.67.33,3.89,3.89,0,0,0-1.52,2.32,11.87,11.87,0,0,0-.35,2.93,24.3,24.3,0,0,0,.75,6,52,52,0,0,0,4.34,11.49,89.71,89.71,0,0,0,6.47,10.76c1.14,1.77,2.58,3.36,3.9,5l4.06,5,.05.06-.24-.1,6.36-.92a59.49,59.49,0,0,0,6.27-1.08,87,87,0,0,0,12-3.61,52,52,0,0,0,10.94-5.59,24.59,24.59,0,0,0,4.58-3.91,11.69,11.69,0,0,0,1.7-2.41,3.88,3.88,0,0,0,.45-2.73,3.3,3.3,0,0,0-1.76-2,9.87,9.87,0,0,0-2.74-.88,31.6,31.6,0,0,0-5.83-.34l-2.93,0a14.84,14.84,0,0,1-2.95-.2,1.19,1.19,0,0,1-.77-.44.86.86,0,0,1-.13-.43,1.91,1.91,0,0,1,0-.41,2,2,0,0,1,.76-1.39,14.54,14.54,0,0,1,2.52-1.48,68.46,68.46,0,0,0,9.51-5.93,28.09,28.09,0,0,0,4-3.66,8.44,8.44,0,0,0,2.36-4.6,3.79,3.79,0,0,0-.6-2.41,5.63,5.63,0,0,0-1.86-1.7,16.19,16.19,0,0,0-4.84-1.73,45.84,45.84,0,0,0-5.05-.73l-2.52-.24a3.24,3.24,0,0,1-1.29-.35,1.24,1.24,0,0,1-.68-1.23,3.19,3.19,0,0,1,1.52-2.09l2-1.48,3.85-2.93,7.44-5.64c2.39-1.88,4.94-3.46,6.73-5.7a8,8,0,0,0,1.85-3.68,4.74,4.74,0,0,0-.94-3.74,3.41,3.41,0,0,0-1.64-1,7.71,7.71,0,0,0-1.92-.32,31.15,31.15,0,0,0-3.87.14c-.64.05-1.27.09-1.91.1a3.39,3.39,0,0,1-1.88-.41,2.31,2.31,0,0,1-1-1.65,5.21,5.21,0,0,1,.11-1.85v0A182.44,182.44,0,0,0,403.14,168c2-5,3.73-9.29,4.35-13a17,17,0,0,0,.19-4.9,7.83,7.83,0,0,0-1.16-3.34,4.65,4.65,0,0,0-1.55-1.51,3.84,3.84,0,0,0-.66-.33,2.65,2.65,0,0,1,.68.29,4.55,4.55,0,0,1,1.6,1.5,7.82,7.82,0,0,1,1.22,3.37,16.84,16.84,0,0,1-.16,4.95c-.59,3.71-2.3,8-4.28,13A181.17,181.17,0,0,1,395.75,185v0a5,5,0,0,0-.09,1.72,2,2,0,0,0,.82,1.43,3.07,3.07,0,0,0,1.7.35c.62,0,1.25-.06,1.89-.11a31.42,31.42,0,0,1,3.91-.15,8.2,8.2,0,0,1,2,.33,3.76,3.76,0,0,1,1.79,1.07,5.11,5.11,0,0,1,1,4,8.48,8.48,0,0,1-1.92,3.86c-1.85,2.3-4.43,3.9-6.79,5.78l-7.43,5.66-3.84,2.92-2,1.49a4.8,4.8,0,0,0-.88.78,2,2,0,0,0-.46,1,.8.8,0,0,0,.45.82,2.85,2.85,0,0,0,1.13.29l2.51.24a45.54,45.54,0,0,1,5.11.73,16.6,16.6,0,0,1,5,1.78,6,6,0,0,1,2,1.84,4.2,4.2,0,0,1,.67,2.69,8.83,8.83,0,0,1-2.47,4.88,27.88,27.88,0,0,1-4.09,3.73,69.1,69.1,0,0,1-9.57,6,14.19,14.19,0,0,0-2.42,1.4,1.53,1.53,0,0,0-.6,1.06,1.63,1.63,0,0,0,0,.31c0,.07.05.26.07.25a.89.89,0,0,0,.47.21,14.54,14.54,0,0,0,2.83.18l2.92,0a31.17,31.17,0,0,1,5.93.35,9.86,9.86,0,0,1,2.89.93,3.78,3.78,0,0,1,2,2.37,4.39,4.39,0,0,1-.48,3.08,12.34,12.34,0,0,1-1.78,2.52,25.14,25.14,0,0,1-4.67,4,52.1,52.1,0,0,1-11.05,5.65,88,88,0,0,1-12.1,3.64,58,58,0,0,1-6.3,1.08l-6.37.93-.14,0-.1-.11,0-.06-4.07-5a63,63,0,0,1-3.91-5A88,88,0,0,1,342.88,245a52.57,52.57,0,0,1-4.38-11.6,25.17,25.17,0,0,1-.76-6.1,11.77,11.77,0,0,1,.38-3.06,4.35,4.35,0,0,1,1.72-2.6,3.75,3.75,0,0,1,3.07-.4,10,10,0,0,1,2.77,1.26,32.84,32.84,0,0,1,4.62,3.72l2.14,2a14.53,14.53,0,0,0,2.21,1.77.9.9,0,0,0,.49.16s.16-.09.22-.14a1.14,1.14,0,0,0,.22-.22,1.54,1.54,0,0,0,.27-1.18A13.31,13.31,0,0,0,355,226a70.12,70.12,0,0,1-3.06-10.86,29.29,29.29,0,0,1-.52-5.51,9,9,0,0,1,1.45-5.28,4.23,4.23,0,0,1,2.3-1.54,6,6,0,0,1,2.73,0,16.49,16.49,0,0,1,4.88,2,47,47,0,0,1,4.28,2.88l2,1.52a2.91,2.91,0,0,0,1,.55.81.81,0,0,0,.89-.3,1.92,1.92,0,0,0,.34-1,4.49,4.49,0,0,0-.13-1.18l-.45-2.41c-.29-1.6-.58-3.19-.87-4.75q-.87-4.71-1.69-9.19c-.49-3-1.33-5.89-1.15-8.84a8.38,8.38,0,0,1,1.18-4.15,5.06,5.06,0,0,1,3.49-2.3,3.88,3.88,0,0,1,2.05.41,8.58,8.58,0,0,1,1.7,1.11,29.08,29.08,0,0,1,2.8,2.74c.44.47.87.93,1.33,1.35a3,3,0,0,0,1.5.89,2,2,0,0,0,1.56-.51,5,5,0,0,0,1.09-1.34v0a183.81,183.81,0,0,1,5.71-17.65c1.91-5.05,3.55-9.4,5.63-12.54a16.88,16.88,0,0,1,3.26-3.74,7.85,7.85,0,0,1,3.22-1.6,4.79,4.79,0,0,1,2.2,0A2.59,2.59,0,0,1,404.45,145Z" transform="translate(-7.66 -12.68)"/><path class="cls-6" d="M399.2,158.6a1.68,1.68,0,0,1-.1.33l-.34.94-1.38,3.59-5.09,13.21-16.6,43.64c-6.47,17.05-12.38,32.47-16.76,43.59-2.19,5.56-4,10.05-5.24,13.15-.63,1.52-1.12,2.71-1.46,3.56-.17.38-.3.68-.4.92a1.26,1.26,0,0,1-.15.3,2,2,0,0,1,.1-.32c.09-.24.2-.55.35-.94.32-.86.78-2.06,1.37-3.6,1.21-3.15,2.95-7.65,5.09-13.2,4.26-11.2,10.13-26.61,16.61-43.65s12.37-32.46,16.75-43.58c2.19-5.56,4-10.06,5.24-13.15l1.47-3.56.39-.92A1.55,1.55,0,0,1,399.2,158.6Z" transform="translate(-7.66 -12.68)"/><path class="cls-6" d="M399.74,193.11a16.91,16.91,0,0,1-2.5,1.49l-6.13,3.4c-2.39,1.34-4.57,2.52-6.18,3.33a14,14,0,0,1-2.67,1.16,20.33,20.33,0,0,1,2.5-1.49l6.1-3.45c2.39-1.33,4.59-2.49,6.21-3.28A14.88,14.88,0,0,1,399.74,193.11Z" transform="translate(-7.66 -12.68)"/><path class="cls-6" d="M381.45,201.89c-.13.06-2.51-4.48-5.31-10.14s-5-10.3-4.85-10.36,2.51,4.47,5.31,10.13S381.58,201.82,381.45,201.89Z" transform="translate(-7.66 -12.68)"/><path class="cls-6" d="M372.7,228.52a14.7,14.7,0,0,1-2.2-2c-1.29-1.3-3-3.15-4.84-5.29s-3.35-4.16-4.42-5.66a15.75,15.75,0,0,1-1.61-2.5,20.08,20.08,0,0,1,1.91,2.28c1.13,1.44,2.71,3.42,4.51,5.54s3.5,4,4.72,5.38A17.39,17.39,0,0,1,372.7,228.52Z" transform="translate(-7.66 -12.68)"/><path class="cls-6" d="M391,224.23a14.73,14.73,0,0,1-2.64.77c-1.64.41-3.92.94-6.45,1.5s-4.81,1-6.47,1.36a14.26,14.26,0,0,1-2.72.41,14.39,14.39,0,0,1,2.64-.77c1.64-.41,3.92-.95,6.44-1.51s4.82-1,6.48-1.35A14.16,14.16,0,0,1,391,224.23Z" transform="translate(-7.66 -12.68)"/><path class="cls-6" d="M386.26,248.72a23.53,23.53,0,0,1-3.4.91c-2.11.49-5,1.14-8.28,1.83s-6.18,1.27-8.31,1.68a23.39,23.39,0,0,1-3.48.54,23.86,23.86,0,0,1,3.4-.9c2.12-.5,5-1.15,8.28-1.83s6.18-1.28,8.32-1.68A22.77,22.77,0,0,1,386.26,248.72Z" transform="translate(-7.66 -12.68)"/><path class="cls-6" d="M363.32,253.41a3.87,3.87,0,0,1-.75-.69c-.46-.46-1.11-1.14-1.89-2-1.57-1.72-3.69-4.15-5.9-6.92s-4.13-5.37-5.47-7.28c-.66-1-1.19-1.73-1.54-2.28a3.85,3.85,0,0,1-.5-.88,3.65,3.65,0,0,1,.67.76l1.67,2.19c1.41,1.85,3.36,4.4,5.57,7.16s4.28,5.23,5.77,7A27.19,27.19,0,0,1,363.32,253.41Z" transform="translate(-7.66 -12.68)"/><path class="cls-7" d="M353.32,320.39c-17.37-14-19.88-37.93-17.7-59.14.36-3.54.23-7.31,2.13-10.31s6-4.85,9.06-3.14c2.55,1.42,3.49,4.57,4.79,7.21a20.84,20.84,0,0,0,7.78,8.52c2.18,1.32,4.93,2.23,7.24,1.16,3.18-1.48,3.83-5.69,4.05-9.22l1.23-19.74c.22-3.53.46-7.14,1.78-10.41s4-6.22,7.39-6.93,7.44,1.51,7.92,5a34.19,34.19,0,0,1-.2,4.4c0,1.47.56,3.14,1.93,3.65s2.86-.4,4-1.36c3.89-3.31,6.68-7.73,9.3-12.14s5.19-8.93,8.76-12.59,8.36-6.43,13.43-6.37,10.25,3.55,11.19,8.6-2.31,9.92-5.75,13.73a79,79,0,0,1-17.48,14.51,6.51,6.51,0,0,0-2.94,2.76c-.93,2.3,1.14,4.79,3.41,5.73,2.57,1.05,5.44,1,8.17,1.49s5.63,1.93,6.49,4.6c1.2,3.71-2.07,7.28-5.21,9.56a67.8,67.8,0,0,1-20.77,10.16c-2.66.77-5.45,1.42-7.67,3.1s-3.7,4.76-2.6,7.34,4.28,3.59,7,3.27,5.29-1.63,7.95-2.43c5-1.49,11.21-.73,14,3.68,1.86,2.89,1.77,6.74.51,10a25.59,25.59,0,0,1-5.95,8.36,68,68,0,0,1-30.37,18.38c-11.52,3.13-22,3.47-32.92-1.39" transform="translate(-7.66 -12.68)"/><g class="cls-8"><path d="M353.32,320.39c-17.37-14-19.88-37.93-17.7-59.14.36-3.54.23-7.31,2.13-10.31s6-4.85,9.06-3.14c2.55,1.42,3.49,4.57,4.79,7.21a20.84,20.84,0,0,0,7.78,8.52c2.18,1.32,4.93,2.23,7.24,1.16,3.18-1.48,3.83-5.69,4.05-9.22l1.23-19.74c.22-3.53.46-7.14,1.78-10.41s4-6.22,7.39-6.93,7.44,1.51,7.92,5a34.19,34.19,0,0,1-.2,4.4c0,1.47.56,3.14,1.93,3.65s2.86-.4,4-1.36c3.89-3.31,6.68-7.73,9.3-12.14s5.19-8.93,8.76-12.59,8.36-6.43,13.43-6.37,10.25,3.55,11.19,8.6-2.31,9.92-5.75,13.73a79,79,0,0,1-17.48,14.51,6.51,6.51,0,0,0-2.94,2.76c-.93,2.3,1.14,4.79,3.41,5.73,2.57,1.05,5.44,1,8.17,1.49s5.63,1.93,6.49,4.6c1.2,3.71-2.07,7.28-5.21,9.56a67.8,67.8,0,0,1-20.77,10.16c-2.66.77-5.45,1.42-7.67,3.1s-3.7,4.76-2.6,7.34,4.28,3.59,7,3.27,5.29-1.63,7.95-2.43c5-1.49,11.21-.73,14,3.68,1.86,2.89,1.77,6.74.51,10a25.59,25.59,0,0,1-5.95,8.36,68,68,0,0,1-30.37,18.38c-11.52,3.13-22,3.47-32.92-1.39" transform="translate(-7.66 -12.68)"/></g><path class="cls-6" d="M352,336.13a155.36,155.36,0,0,1,7.76-28.69,318.8,318.8,0,0,1,14.89-33.19l4.35-8.5c1.43-2.79,2.86-5.55,4.41-8.17a160.47,160.47,0,0,1,9.82-14.52c3.34-4.47,6.68-8.59,9.83-12.41s6.17-7.34,9.05-10.42a124.4,124.4,0,0,1,14.66-13.5c1.85-1.46,3.32-2.54,4.32-3.26l1.15-.81a2.8,2.8,0,0,1,.41-.26,2.3,2.3,0,0,1-.37.32l-1.11.86c-1,.75-2.42,1.86-4.25,3.35a133.37,133.37,0,0,0-14.48,13.62c-2.85,3.09-5.83,6.61-9,10.44s-6.44,8-9.76,12.44a158.73,158.73,0,0,0-9.75,14.48c-1.54,2.61-2.95,5.35-4.39,8.14s-2.87,5.63-4.34,8.5a325.27,325.27,0,0,0-14.91,33.1,158.21,158.21,0,0,0-7.87,28.56" transform="translate(-7.66 -12.68)"/><path class="cls-6" d="M383.56,257.57a7.16,7.16,0,0,1-.24-1.53c-.12-1-.24-2.42-.37-4.2-.26-3.54-.45-8.46-.63-13.87s-.45-10.32-.76-13.85c-.15-1.77-.29-3.2-.4-4.19a7.43,7.43,0,0,1-.09-1.54,6.15,6.15,0,0,1,.34,1.51c.19,1,.4,2.4.6,4.17.44,3.53.77,8.45.95,13.87s.33,10.18.45,13.88c.06,1.67.12,3.07.16,4.2A6.39,6.39,0,0,1,383.56,257.57Z" transform="translate(-7.66 -12.68)"/><path class="cls-6" d="M429.52,252.2a9.08,9.08,0,0,1-1.82.1c-1.17,0-2.87,0-5,.14-4.19.17-10,.6-16.32,1.35s-12.07,1.7-16.19,2.49c-2.06.38-3.72.74-4.87,1a9.28,9.28,0,0,1-1.8.31,10.38,10.38,0,0,1,1.74-.56c1.14-.32,2.79-.74,4.84-1.19,4.11-.91,9.84-1.92,16.21-2.69A159.83,159.83,0,0,1,422.73,252c2.1,0,3.8,0,5,.06A10.25,10.25,0,0,1,429.52,252.2Z" transform="translate(-7.66 -12.68)"/><path class="cls-6" d="M360.34,306.64s-.12-.19-.28-.57-.4-1-.66-1.7c-.57-1.47-1.34-3.63-2.25-6.3-1.84-5.35-4.14-12.82-6.56-21.09s-4.66-15.76-6.37-21.14l-2.06-6.37-.55-1.73a2.35,2.35,0,0,1-.15-.62,2.23,2.23,0,0,1,.28.57c.18.46.39,1,.66,1.7.57,1.47,1.34,3.63,2.25,6.3,1.84,5.35,4.13,12.82,6.56,21.1s4.65,15.75,6.37,21.13l2.06,6.37.55,1.73A3.19,3.19,0,0,1,360.34,306.64Z" transform="translate(-7.66 -12.68)"/><path class="cls-6" d="M422,291.35a2.49,2.49,0,0,1-.61.2l-1.8.47-6.6,1.65c-5.57,1.39-13.25,3.41-21.72,5.64s-16.19,4.19-21.79,5.46c-2.8.65-5.08,1.14-6.65,1.45l-1.82.35a2,2,0,0,1-.64.07,2.29,2.29,0,0,1,.61-.2l1.79-.47,6.6-1.65c5.58-1.39,13.25-3.41,21.73-5.64s16.18-4.19,21.79-5.47c2.8-.64,5.07-1.13,6.65-1.44l1.82-.35A2,2,0,0,1,422,291.35Z" transform="translate(-7.66 -12.68)"/></g><g id="Checklist"><rect class="cls-9" x="107.19" y="31.66" width="242.51" height="332.3"/><polygon class="cls-2" points="340.12 344.2 295.2 344.2 127.39 344.2 127.39 45.09 340.12 45.09 340.12 306.99 340.12 344.2"/><polygon class="cls-1" points="336.75 338.65 292.25 338.65 125.94 338.65 125.94 41.13 336.75 41.13 336.75 301.63 336.75 338.65"/><polygon class="cls-5" points="314.1 315.5 289.82 335.27 122.01 335.27 122.01 41.89 334.74 41.89 334.74 298.77 314.1 315.5"/><path class="cls-6" d="M321.76,328.18l1.29-1.08,3.89-3.18,15.4-12.53,0,.06c0-42.19-.08-135.95-.15-256.88l.23.24-210.87,0h-1.86l.26-.26c0,110.3,0,212.05,0,293.38l-.21-.21,167.82.12-.06,0,18.23-14.79,4.57-3.69c1-.82,1.54-1.22,1.54-1.22l-1.51,1.25q-1.51,1.26-4.54,3.73L297.53,348l0,0h0l-167.82.12h-.21V348c0-81.33,0-183.08,0-293.38v-.26h2.12l210.87,0h.24v.23c-.08,120.93-.13,214.69-.16,256.88v0l0,0L327,324l-3.92,3.14Z" transform="translate(-7.66 -12.68)"/><path class="cls-7" d="M199.67,21.38h58.15A14.15,14.15,0,0,1,272,35.54V51.23a0,0,0,0,1,0,0H184.92a0,0,0,0,1,0,0V36.14A14.76,14.76,0,0,1,199.67,21.38Z"/><polygon class="cls-7" points="206.24 21.38 203.06 5.29 253.19 5.29 250.4 21.38 206.24 21.38"/><path class="cls-7" d="M187.75,137.15H151.91V101.31h35.84Zm-34.84-1h33.84V102.31H152.91Z" transform="translate(-7.66 -12.68)"/><path class="cls-6" d="M314.39,110c0,.14-24.94.26-55.71.26S203,110.11,203,110s24.94-.26,55.72-.26S314.39,109.82,314.39,110Z" transform="translate(-7.66 -12.68)"/><path class="cls-6" d="M314.39,117.41c0,.15-24.94.26-55.71.26s-55.72-.11-55.72-.26,24.94-.26,55.72-.26S314.39,117.27,314.39,117.41Z" transform="translate(-7.66 -12.68)"/><path class="cls-6" d="M314.39,124.86c0,.15-24.94.26-55.71.26S203,125,203,124.86s24.94-.26,55.72-.26S314.39,124.72,314.39,124.86Z" transform="translate(-7.66 -12.68)"/><path class="cls-6" d="M314.39,132.31c0,.14-24.94.26-55.71.26s-55.72-.12-55.72-.26,24.94-.26,55.72-.26S314.39,132.16,314.39,132.31Z" transform="translate(-7.66 -12.68)"/><path class="cls-7" d="M187.75,192.38H151.91V156.55h35.84Zm-34.84-1h33.84V157.55H152.91Z" transform="translate(-7.66 -12.68)"/><polygon class="cls-7" points="151.38 162.52 156.14 157.41 164.07 163.75 182.22 146.13 186.57 151.25 163.72 173.79 151.38 162.52"/><path class="cls-6" d="M314.39,165.2c0,.14-24.94.26-55.71.26S203,165.34,203,165.2s24.94-.26,55.72-.26S314.39,165.06,314.39,165.2Z" transform="translate(-7.66 -12.68)"/><path class="cls-6" d="M314.39,172.65c0,.14-24.94.26-55.71.26s-55.72-.12-55.72-.26,24.94-.26,55.72-.26S314.39,172.5,314.39,172.65Z" transform="translate(-7.66 -12.68)"/><path class="cls-6" d="M314.39,180.09c0,.15-24.94.27-55.71.27s-55.72-.12-55.72-.27,24.94-.26,55.72-.26S314.39,180,314.39,180.09Z" transform="translate(-7.66 -12.68)"/><path class="cls-6" d="M314.39,187.54c0,.15-24.94.26-55.71.26s-55.72-.11-55.72-.26,24.94-.26,55.72-.26S314.39,187.4,314.39,187.54Z" transform="translate(-7.66 -12.68)"/><path class="cls-7" d="M187.75,245.83H151.91V210h35.84Zm-34.84-1h33.84V211H152.91Z" transform="translate(-7.66 -12.68)"/><polygon class="cls-7" points="151.38 215.97 156.14 210.86 164.07 217.2 182.22 199.58 186.57 204.7 163.72 227.24 151.38 215.97"/><path class="cls-6" d="M314.39,218.65c0,.14-24.94.26-55.71.26s-55.72-.12-55.72-.26,24.94-.26,55.72-.26S314.39,218.5,314.39,218.65Z" transform="translate(-7.66 -12.68)"/><path class="cls-6" d="M314.39,226.1c0,.14-24.94.26-55.71.26S203,226.24,203,226.1s24.94-.26,55.72-.26S314.39,226,314.39,226.1Z" transform="translate(-7.66 -12.68)"/><path class="cls-6" d="M314.39,233.54c0,.15-24.94.26-55.71.26s-55.72-.11-55.72-.26,24.94-.26,55.72-.26S314.39,233.4,314.39,233.54Z" transform="translate(-7.66 -12.68)"/><path class="cls-6" d="M314.39,241c0,.14-24.94.26-55.71.26S203,241.13,203,241s24.94-.26,55.72-.26S314.39,240.85,314.39,241Z" transform="translate(-7.66 -12.68)"/><path class="cls-7" d="M187.75,297.44H151.91V261.6h35.84Zm-34.84-1h33.84V262.6H152.91Z" transform="translate(-7.66 -12.68)"/><polygon class="cls-7" points="151.38 267.57 156.14 262.46 164.07 268.81 182.22 251.18 186.57 256.31 163.72 278.85 151.38 267.57"/><path class="cls-6" d="M314.39,270.25c0,.15-24.94.26-55.71.26S203,270.4,203,270.25s24.94-.26,55.72-.26S314.39,270.11,314.39,270.25Z" transform="translate(-7.66 -12.68)"/><path class="cls-6" d="M314.39,277.7c0,.14-24.94.26-55.71.26S203,277.84,203,277.7s24.94-.26,55.72-.26S314.39,277.56,314.39,277.7Z" transform="translate(-7.66 -12.68)"/><path class="cls-6" d="M314.39,285.15c0,.14-24.94.26-55.71.26s-55.72-.12-55.72-.26,24.94-.26,55.72-.26S314.39,285,314.39,285.15Z" transform="translate(-7.66 -12.68)"/><path class="cls-6" d="M314.39,292.6c0,.14-24.94.26-55.71.26S203,292.74,203,292.6s24.94-.26,55.72-.26S314.39,292.45,314.39,292.6Z" transform="translate(-7.66 -12.68)"/><polygon class="cls-2" points="296.49 286.69 273.17 334.99 289.82 334.99 296.49 286.69"/><polygon class="cls-5" points="289.82 335.27 296.49 286.96 334.74 298.77 289.82 335.27"/><path class="cls-6" d="M297.48,348l12.86-10.59,31.89-26.11.09.45-14.77-4.56-23.48-7.26.32-.2c-2,14-3.71,26.05-4.93,34.59-1.2,8.31-1.83,12.6-2,13.68,0,0,0-.07,0-.21l.08-.67c.08-.63.2-1.51.35-2.63.31-2.35.75-5.72,1.31-10l4.66-34.86,0-.29.28.09,23.48,7.23,14.77,4.56.45.14-.37.3-32.28,26-9.42,7.57-2.52,2-.64.51Z" transform="translate(-7.66 -12.68)"/><g class="cls-10"><polyline points="249.72 5.29 246.96 21.38 250.4 21.38 253.19 5.29 248.8 5.29"/></g></g><g id="Character"><path class="cls-11" d="M110.54,187.77h0a9,9,0,0,0,9.68-8.62c.19-4.9.35-9.85.35-9.85s7.42-.69,8-8,.29-24.29.29-24.29h0A25.58,25.58,0,0,0,103,138.63l.46,25.84v13.91C103.47,183,105.89,187.42,110.54,187.77Z" transform="translate(-7.66 -12.68)"/><path class="cls-6" d="M121.21,152.3a3.76,3.76,0,0,0-5-1.1,4.27,4.27,0,0,0-1.42,5.34,5.61,5.61,0,0,0,3.61,2.72,2.82,2.82,0,0,1,2.2,3,9.34,9.34,0,0,1-2.58,5.11,13.47,13.47,0,0,1-8.5,4c-3.12.37-6.71-.28-8.53-2.85-1.32-1.87-1.42-4.32-1.46-6.61q-.17-8.11-.34-16.24a23.2,23.2,0,0,1,.37-5.83,7.79,7.79,0,0,1,3.08-4.82c1.78-1.18,4-1.28,6.08-1.93,2.54-.83,4.7-2.51,7.08-3.73s5.3-2,7.69-.75c1.71.86,2.86,2.58,4.53,3.52,2.37,1.35,5.61,1.05,6.76,4.54a5.88,5.88,0,0,1,0,3.73c-1.61,4.75-7.49,6.67-11.73,4.62-.09.8.71,2.59-.14,5.13-.27.82-.37,2.05-1.64,2.08" transform="translate(-7.66 -12.68)"/><path class="cls-6" d="M101,137.18a25.25,25.25,0,0,0,2.36-7.38,8.45,8.45,0,0,0-2.32-7.12A7,7,0,0,0,96.15,121a8.19,8.19,0,0,0-7.38,5.85,8.82,8.82,0,0,0,3,9,9.55,9.55,0,0,0,9.51,1.24" transform="translate(-7.66 -12.68)"/><path class="cls-7" d="M102.39,134.5a3.6,3.6,0,0,1-3.48,3.4c0-.15,1.08-.44,2-1.4S102.24,134.46,102.39,134.5Z" transform="translate(-7.66 -12.68)"/><path class="cls-6" d="M100,136.3a6.8,6.8,0,0,1-2,1.46,5.92,5.92,0,0,1-2.63.74,3.66,3.66,0,0,1-3.06-1.37,4.13,4.13,0,0,1-.55-3.33A6.6,6.6,0,0,1,93,131.37a8,8,0,0,1,1.74-1.75c.06.06-.58.75-1.44,2a6.74,6.74,0,0,0-1.07,2.32,3.7,3.7,0,0,0,.5,2.91,3.25,3.25,0,0,0,2.64,1.2,5.91,5.91,0,0,0,2.47-.59C99.15,136.78,99.93,136.22,100,136.3Z" transform="translate(-7.66 -12.68)"/><path class="cls-6" d="M87.49,144.59a3,3,0,0,1,.36.82,8.53,8.53,0,0,0,1.08,2.09,3,3,0,0,0,2.88,1.32A3.92,3.92,0,0,0,94.57,146a28.12,28.12,0,0,0,.76-4.26,6.61,6.61,0,0,1,1.4-3.37,3.67,3.67,0,0,1,2.14-1.22,1.42,1.42,0,0,1,.9.08c0,.05-.33,0-.87.12A3.69,3.69,0,0,0,97,138.64a6.51,6.51,0,0,0-1.21,3.21,25.31,25.31,0,0,1-.73,4.35,4.36,4.36,0,0,1-3.18,3.09,3,3,0,0,1-2-.38,4.13,4.13,0,0,1-1.26-1.19,7,7,0,0,1-1-2.25A2.87,2.87,0,0,1,87.49,144.59Z" transform="translate(-7.66 -12.68)"/><path class="cls-11" d="M83.88,206.28s-3.74,27.43,0,30.9,7.35,2.32,7.35,2.32l7.13-6,1.4-27.26Z" transform="translate(-7.66 -12.68)"/><polygon class="cls-7" points="153.68 116.63 158.44 111.52 166.37 117.86 184.52 100.24 188.87 105.36 166.02 127.9 153.68 116.63"/><path class="cls-11" d="M183.7,130.7l-6.9,4.43c-.32-2.73-2.4-5.43-2.29-4.06s0,8.48,0,8.48l-12.3,25.89c-1.68,4.1-5.06,6.68-7.6,7.29l-11.48,3.41,4.49,15.19,16-5.29a13.76,13.76,0,0,0,8.75-8.78l11-33.52a52.27,52.27,0,0,0,1.77-6.61C185.6,134.34,183.7,130.7,183.7,130.7Z" transform="translate(-7.66 -12.68)"/><path class="cls-7" d="M127.16,413.88,127,406.2l-14.38.23.13,11.23.89,0c4,.15,20.21.51,22.85-.33C139.43,416.43,127.16,413.88,127.16,413.88Z" transform="translate(-7.66 -12.68)"/><g class="cls-12"><path class="cls-4" d="M118,417.47a5,5,0,0,0-1.88-3,4.86,4.86,0,0,0-3.38-1l.06,4Z" transform="translate(-7.66 -12.68)"/></g><g class="cls-13"><path class="cls-4" d="M133.16,415.34s4.3,1.17,3.78,1.88-17,1-24.2.44l0-.32,19.16-.13S132.32,415.39,133.16,415.34Z" transform="translate(-7.66 -12.68)"/></g><path class="cls-6" d="M112.53,417.34l.25,0,.71,0,2.62.07c2.2.05,5.26.07,8.63,0s6.42-.16,8.63-.27l2.61-.15.71-.05.25,0h-.25l-.71,0-2.61.1c-2.21.08-5.26.17-8.63.22s-6.42,0-8.63,0l-2.62,0h-.71Z" transform="translate(-7.66 -12.68)"/><path class="cls-6" d="M131.91,417.43a3.83,3.83,0,0,1,1.35-2.27,2,2,0,0,0-1,.93A2,2,0,0,0,131.91,417.43Z" transform="translate(-7.66 -12.68)"/><path class="cls-6" d="M127.64,415.35s.24-.23.44-.56.34-.63.3-.65-.24.22-.45.56S127.6,415.32,127.64,415.35Z" transform="translate(-7.66 -12.68)"/><path class="cls-6" d="M126.46,414.75s.26-.12.51-.35.41-.44.38-.47-.26.12-.5.34S126.43,414.71,126.46,414.75Z" transform="translate(-7.66 -12.68)"/><path class="cls-6" d="M125.71,413.4a1.62,1.62,0,0,0,.75.09,2.05,2.05,0,0,0,.75-.09,1.65,1.65,0,0,0-.75-.09A1.62,1.62,0,0,0,125.71,413.4Z" transform="translate(-7.66 -12.68)"/><path class="cls-6" d="M125.44,412.45a2.1,2.1,0,0,0,1.7.1,4.41,4.41,0,0,0-.85-.05A4.69,4.69,0,0,0,125.44,412.45Z" transform="translate(-7.66 -12.68)"/><path class="cls-6" d="M128.11,414.08a2.55,2.55,0,0,0,.92,0,5.65,5.65,0,0,0,1-.23,3,3,0,0,0,.56-.24.53.53,0,0,0,.23-.29.4.4,0,0,0-.15-.37,1.7,1.7,0,0,0-2.09.53,1.58,1.58,0,0,0-.29.62c0,.16,0,.25,0,.25a2.6,2.6,0,0,1,.41-.79,1.69,1.69,0,0,1,.78-.53,1.45,1.45,0,0,1,1.1.06c.15.11.1.28-.07.38a2.94,2.94,0,0,1-.51.23,5.5,5.5,0,0,1-1,.26C128.46,414.05,128.11,414.05,128.11,414.08Z" transform="translate(-7.66 -12.68)"/><path class="cls-6" d="M128.35,414.13a1,1,0,0,0,.09-.65,1.45,1.45,0,0,0-.26-.67,1,1,0,0,0-.78-.46.36.36,0,0,0-.27.43.88.88,0,0,0,.16.41,3,3,0,0,0,.44.56,1.39,1.39,0,0,0,.54.36s-.19-.16-.45-.45a2.78,2.78,0,0,1-.39-.55c-.13-.19-.23-.54,0-.59s.47.2.61.39a1.48,1.48,0,0,1,.27.59A3.31,3.31,0,0,1,128.35,414.13Z" transform="translate(-7.66 -12.68)"/><path class="cls-6" d="M112.76,413.4s.42,0,1.07,0a4.51,4.51,0,0,1,3.81,2.94c.23.62.26,1,.29,1a1.07,1.07,0,0,0,0-.29,4.24,4.24,0,0,0-.17-.77,4.46,4.46,0,0,0-1.49-2.12,4.6,4.6,0,0,0-2.43-.91,4.25,4.25,0,0,0-.79,0A.92.92,0,0,0,112.76,413.4Z" transform="translate(-7.66 -12.68)"/><path class="cls-6" d="M114.16,407.39a48.57,48.57,0,0,0,0,5.91,25.69,25.69,0,0,0,.08-3A25.31,25.31,0,0,0,114.16,407.39Z" transform="translate(-7.66 -12.68)"/><path class="cls-6" d="M119.74,416a8.62,8.62,0,0,0,2.1.17,7.63,7.63,0,0,0,2.1-.2c0-.05-.94,0-2.1,0S119.75,416,119.74,416Z" transform="translate(-7.66 -12.68)"/><path class="cls-6" d="M116.92,416.08s.08.19.18.41.16.4.21.4.07-.23,0-.48S117,416,116.92,416.08Z" transform="translate(-7.66 -12.68)"/><path class="cls-6" d="M115.84,414.77s.06.18.21.33.3.24.34.21-.06-.18-.22-.33S115.87,414.74,115.84,414.77Z" transform="translate(-7.66 -12.68)"/><path class="cls-6" d="M114.31,414.19c0,.05.2,0,.41.11s.37.19.41.15-.09-.23-.35-.31S114.29,414.15,114.31,414.19Z" transform="translate(-7.66 -12.68)"/><path class="cls-6" d="M113.22,413.92c0,.05.07.12.19.16s.23.05.25,0-.07-.12-.19-.16S113.24,413.88,113.22,413.92Z" transform="translate(-7.66 -12.68)"/><path class="cls-7" d="M76.4,411.42l4.88-5.93-11-9.21L63,404.88l.65.62c2.91,2.71,15,13.57,17.54,14.65C84,421.36,76.4,411.42,76.4,411.42Z" transform="translate(-7.66 -12.68)"/><g class="cls-12"><path class="cls-4" d="M67.08,408.14a5,5,0,0,0,.55-3.54,4.81,4.81,0,0,0-1.91-3l-2.58,3.09Z" transform="translate(-7.66 -12.68)"/></g><g class="cls-13"><path class="cls-4" d="M80,416.44s2.5,3.69,1.64,3.89S68.16,410,63,404.88l.23-.23,14.6,12.4S79.33,415.93,80,416.44Z" transform="translate(-7.66 -12.68)"/></g><path class="cls-6" d="M63.06,404.5s0,.07.17.18l.52.49,1.93,1.76c1.65,1.47,3.95,3.48,6.54,5.64s5,4.07,6.72,5.43L81,419.59l.58.42.2.14s-.06-.06-.18-.17l-.55-.45-2-1.63c-1.72-1.38-4.09-3.3-6.68-5.46s-4.9-4.15-6.56-5.6l-2-1.72-.54-.47Z" transform="translate(-7.66 -12.68)"/><path class="cls-6" d="M77.69,417.22a5.63,5.63,0,0,1,1.17-.65,6.77,6.77,0,0,1,1.33-.2,2,2,0,0,0-1.38,0A1.92,1.92,0,0,0,77.69,417.22Z" transform="translate(-7.66 -12.68)"/><path class="cls-6" d="M75.81,412.84c0,.05.33,0,.7-.13s.66-.25.65-.3a1.73,1.73,0,0,0-.7.13C76.08,412.66,75.79,412.8,75.81,412.84Z" transform="translate(-7.66 -12.68)"/><path class="cls-6" d="M75.31,411.63a1.25,1.25,0,0,0,.6.06c.34,0,.6-.06.6-.11s-.27-.08-.6-.06S75.31,411.58,75.31,411.63Z" transform="translate(-7.66 -12.68)"/><path class="cls-6" d="M75.61,410.11s.2.29.52.56a1.92,1.92,0,0,0,.62.42s-.2-.29-.51-.56S75.64,410.07,75.61,410.11Z" transform="translate(-7.66 -12.68)"/><path class="cls-6" d="M76,409.21a1.47,1.47,0,0,0,.49.73,1.41,1.41,0,0,0,.74.46,6.6,6.6,0,0,0-.62-.59A6.43,6.43,0,0,0,76,409.21Z" transform="translate(-7.66 -12.68)"/><path class="cls-6" d="M77,412.19a2.34,2.34,0,0,0,.71.59,4.89,4.89,0,0,0,.89.46,2.92,2.92,0,0,0,.59.19.47.47,0,0,0,.35-.08.34.34,0,0,0,.13-.37,1.68,1.68,0,0,0-1.92-1,1.55,1.55,0,0,0-.63.28c-.13.1-.19.17-.18.17a2.84,2.84,0,0,1,.83-.33,1.64,1.64,0,0,1,.93.11,1.42,1.42,0,0,1,.8.76c.05.18-.11.28-.3.25a2.6,2.6,0,0,1-.54-.17,8.47,8.47,0,0,1-.89-.41C77.27,412.4,77,412.17,77,412.19Z" transform="translate(-7.66 -12.68)"/><path class="cls-6" d="M77.14,412.38s.26-.08.49-.42a1.48,1.48,0,0,0,.24-.68.91.91,0,0,0-.29-.86.37.37,0,0,0-.49.15A1,1,0,0,0,77,411a2.43,2.43,0,0,0,0,.7,1.25,1.25,0,0,0,.17.63s0-.24,0-.63a3.35,3.35,0,0,1,0-.68c0-.23.19-.55.4-.44s.22.46.21.69a1.56,1.56,0,0,1-.18.63A3,3,0,0,1,77.14,412.38Z" transform="translate(-7.66 -12.68)"/><path class="cls-6" d="M65.8,401.67a7.82,7.82,0,0,1,.8.71,4.66,4.66,0,0,1,1.16,2.21,4.72,4.72,0,0,1-.19,2.5c-.23.62-.48,1-.45,1a.85.85,0,0,0,.18-.22,3.86,3.86,0,0,0,.38-.7,4.46,4.46,0,0,0,.25-2.58,4.33,4.33,0,0,0-1.25-2.27,3.4,3.4,0,0,0-.62-.49C65.9,401.7,65.81,401.66,65.8,401.67Z" transform="translate(-7.66 -12.68)"/><path class="cls-6" d="M70.78,398a28.64,28.64,0,0,0-2,2.19,22.38,22.38,0,0,0-1.85,2.31,24.46,24.46,0,0,0,2-2.19A23.7,23.7,0,0,0,70.78,398Z" transform="translate(-7.66 -12.68)"/><path class="cls-6" d="M69.37,408.22a12,12,0,0,0,3.2,2.72s-.73-.6-1.61-1.35S69.41,408.18,69.37,408.22Z" transform="translate(-7.66 -12.68)"/><path class="cls-6" d="M67.21,406.41s-.07.2-.14.43-.14.41-.1.43.2-.12.27-.39S67.25,406.4,67.21,406.41Z" transform="translate(-7.66 -12.68)"/><path class="cls-6" d="M67.24,404.71s-.07.18-.06.39.07.38.12.38.07-.18.06-.39S67.29,404.71,67.24,404.71Z" transform="translate(-7.66 -12.68)"/><path class="cls-6" d="M66.46,403.28s.12.16.24.35.16.38.21.38.08-.23-.06-.47S66.47,403.23,66.46,403.28Z" transform="translate(-7.66 -12.68)"/><path class="cls-6" d="M65.81,402.36s0,.14,0,.25.14.18.18.16,0-.13,0-.25S65.85,402.34,65.81,402.36Z" transform="translate(-7.66 -12.68)"/><path class="cls-6" d="M106.34,250.74S101.55,271,102.9,275,113,281.34,113,281.34l-.29,55.48-48.53,60,17.92,14.66s52.53-60.09,57.16-71-2.95-90.65-2.95-90.65Z" transform="translate(-7.66 -12.68)"/><path class="cls-6" d="M131.12,242.48,133.5,411l-24.69.13L96.42,273.87h0c-2.62-2.5-6.3-6.78-5.79-16.32l.6-11.1Z" transform="translate(-7.66 -12.68)"/><path class="cls-9" d="M105.09,346.2a1,1,0,0,1,.15-.25l.47-.69,1.83-2.59c1.64-2.27,3.93-5.45,6.7-9.27l0,.12c-.54-5.85-1.19-12.94-1.9-20.59-.89-10-1.62-19.1-2-25.68-.21-3.29-.36-6-.44-7.8,0-.88,0-1.59-.07-2.12a4,4,0,0,1,0-.75,4.14,4.14,0,0,1,.1.74c0,.53.1,1.24.17,2.12.14,1.89.35,4.54.6,7.78.52,6.57,1.31,15.64,2.2,25.67.68,7.67,1.36,14.75,1.8,20.63v.07l0,.06-6.84,9.16-1.93,2.53-.52.65C105.17,346.14,105.1,346.21,105.09,346.2Z" transform="translate(-7.66 -12.68)"/><path class="cls-9" d="M112.67,276.58a33.66,33.66,0,0,1-6.53-1,33.27,33.27,0,0,1-6.38-1.74,57.91,57.91,0,0,1,6.48,1.23A57.14,57.14,0,0,1,112.67,276.58Z" transform="translate(-7.66 -12.68)"/><path class="cls-9" d="M129.58,334.12a25.14,25.14,0,0,0-6.67-1.73,24.81,24.81,0,0,0-6.85.66,5.56,5.56,0,0,1,1.92-.75,14.74,14.74,0,0,1,5-.43,15.11,15.11,0,0,1,4.85,1.2A5.75,5.75,0,0,1,129.58,334.12Z" transform="translate(-7.66 -12.68)"/><path class="cls-9" d="M138.29,341.93c.11.09-6.83,9.41-15.51,20.82s-15.81,20.58-15.92,20.5,6.82-9.41,15.5-20.82S138.17,341.84,138.29,341.93Z" transform="translate(-7.66 -12.68)"/><path class="cls-9" d="M134.94,255a4.1,4.1,0,0,1-1.39,1.83,6.89,6.89,0,0,1-10.06-1.06,4.09,4.09,0,0,1-1-2.09,18.31,18.31,0,0,0,1.26,1.86,6.84,6.84,0,0,0,9.54,1C134.42,255.71,134.86,254.94,134.94,255Z" transform="translate(-7.66 -12.68)"/><path class="cls-6" d="M101.21,168.29a21.55,21.55,0,0,1-1.16-30" transform="translate(-7.66 -12.68)"/><path class="cls-7" d="M87.35,184s-5.36,6.05-6.47,29.23c0,0,15.27,2.89,15.55,2.06S87.35,184,87.35,184Z" transform="translate(-7.66 -12.68)"/><g class="cls-10"><path d="M87.35,184s-5.36,6.05-6.47,29.23c0,0,15.27,2.89,15.55,2.06S87.35,184,87.35,184Z" transform="translate(-7.66 -12.68)"/></g><path class="cls-9" d="M91.67,213.24" transform="translate(-7.66 -12.68)"/><path class="cls-7" d="M89.82,251.49h46.89l-.76-7.32s-5.35-27.87-5.31-28.24l.84-1.77a17.71,17.71,0,0,0,.21-14.75h0l22.95-7.85L149,172.62c-10.42,1.76-26.16,3.72-26.16,3.72l-2.35.19s-16.25.85-16.6.89c-6.8.83-14.71,1.35-17.61,8.63-1.54,3.89-.07,9.73,2.45,15.75l6,18.5c2.4,10.17-1.43,9.68-3.53,19.92C90.91,241.76,89.79,250.07,89.82,251.49Z" transform="translate(-7.66 -12.68)"/><g class="cls-10"><path d="M89.82,251.49h46.89l-.76-7.32s-5.35-27.87-5.31-28.24l.84-1.77a17.71,17.71,0,0,0,.21-14.75h0l22.95-7.85L149,172.62c-10.42,1.76-26.16,3.72-26.16,3.72l-2.35.19s-16.25.85-16.6.89c-6.8.83-14.71,1.35-17.61,8.63-1.54,3.89-.07,9.73,2.45,15.75l6,18.5c2.4,10.17-1.43,9.68-3.53,19.92C90.91,241.76,89.79,250.07,89.82,251.49Z" transform="translate(-7.66 -12.68)"/></g><path class="cls-6" d="M154.43,191.87a5.12,5.12,0,0,1-1,.43c-.67.24-1.63.58-2.84,1-2.4.81-5.73,1.89-9.41,3.06s-7,2.35-9.31,3.31c-1.17.48-2.1.9-2.75,1.18a4.5,4.5,0,0,1-1,.4,4.35,4.35,0,0,1,.94-.58c.62-.34,1.54-.81,2.7-1.33a87.66,87.66,0,0,1,9.29-3.47c3.69-1.18,7-2.2,9.46-2.92l2.89-.83A4.18,4.18,0,0,1,154.43,191.87Z" transform="translate(-7.66 -12.68)"/><path class="cls-5" d="M151.7,181.78c0,.15-13.86.26-31,.26s-31-.11-31-.26,13.86-.26,31-.26S151.7,181.64,151.7,181.78Z" transform="translate(-7.66 -12.68)"/><path class="cls-5" d="M153.13,191c0,.14-15.42.26-34.45.26s-34.46-.12-34.46-.26,15.43-.26,34.46-.26S153.13,190.85,153.13,191Z" transform="translate(-7.66 -12.68)"/><path class="cls-5" d="M88.06,201.47a8.22,8.22,0,0,1-2.87.26,8.22,8.22,0,0,1-2.87-.26,8.22,8.22,0,0,1,2.87-.26A8.22,8.22,0,0,1,88.06,201.47Z" transform="translate(-7.66 -12.68)"/><path class="cls-5" d="M133.13,201.79c0,.14-10.09.26-22.53.26s-22.54-.12-22.54-.26,10.09-.26,22.54-.26S133.13,201.64,133.13,201.79Z" transform="translate(-7.66 -12.68)"/><path class="cls-5" d="M132.13,212.58c0,.15-9,.26-20.22.26s-20.22-.11-20.22-.26,9-.26,20.22-.26S132.13,212.44,132.13,212.58Z" transform="translate(-7.66 -12.68)"/><path class="cls-5" d="M131.84,222.59c0,.14-8.21.26-18.33.26s-18.33-.12-18.33-.26,8.21-.26,18.33-.26S131.84,222.44,131.84,222.59Z" transform="translate(-7.66 -12.68)"/><path class="cls-5" d="M133.44,230.68c0,.15-8.77.27-19.6.27s-19.61-.12-19.61-.27,8.78-.26,19.61-.26S133.44,230.54,133.44,230.68Z" transform="translate(-7.66 -12.68)"/><path class="cls-5" d="M136,241c0,.14-10,.26-22.31.26s-22.31-.12-22.31-.26,10-.27,22.31-.27S136,240.86,136,241Z" transform="translate(-7.66 -12.68)"/><path class="cls-6" d="M94.48,219.43a3.51,3.51,0,0,1-.41-.92c-.28-.71-.61-1.56-1-2.56-.82-2.16-2-5.14-3.19-8.46s-2.21-6.38-2.84-8.61c-.32-1.12-.55-2-.69-2.66a3.38,3.38,0,0,1-.16-1,35.23,35.23,0,0,1,1.2,3.55c.72,2.2,1.76,5.22,3,8.54s2.31,6.32,3.05,8.52c.37,1.1.65,2,.83,2.62A3.66,3.66,0,0,1,94.48,219.43Z" transform="translate(-7.66 -12.68)"/></g></svg>