<svg xmlns="http://www.w3.org/2000/svg" viewBox="0 0 427.69 501.41"><defs><style>.cls-1{fill:#ebebeb;}.cls-2{fill:#e0e0e0;}.cls-3{fill:#f5f5f5;}.cls-4{fill:#b7bbbd;}.cls-5{fill:#e8505b;}.cls-6{opacity:0.8;}.cls-7{fill:#fff;}.cls-8{fill:#263238;}.cls-9{opacity:0.6;}.cls-10{opacity:0.4;}.cls-11{fill:#455a64;}.cls-12{opacity:0.5;}.cls-13,.cls-17{fill:none;stroke-miterlimit:10;stroke-width:0.05px;}.cls-13{stroke:#4e585d;}.cls-14{fill:#ffbe9d;}.cls-15{fill:#eb996e;}.cls-16{fill:#fafafa;}.cls-17{stroke:#839198;}.cls-18{font-size:60.52px;font-family:Roboto-Bold, Roboto;font-weight:700;}.cls-19{letter-spacing:-0.01em;}.cls-20{letter-spacing:0em;}.cls-21{letter-spacing:-0.09em;}.cls-22{opacity:0.3;}</style></defs><title>logo2</title><g id="Background_Complete" data-name="Background Complete"><path class="cls-1" d="M92.18,432.33c20.4-7.49,30-28.65,34.48-48.75.74-3.36,2-6.77,1.16-10.1s-4.08-6.28-7.46-5.66c-2.8.52-4.63,3.11-6.65,5.13a20.12,20.12,0,0,1-9.82,5.42c-2.43.55-5.26.54-7.08-1.16-2.5-2.32-1.82-6.38-1-9.68q2.44-9.22,4.88-18.46c.87-3.31,1.75-6.68,1.51-10.09s-1.78-6.91-4.74-8.61-7.38-.9-8.89,2.16a33.14,33.14,0,0,0-1.15,4.1c-.45,1.35-1.49,2.7-2.91,2.74s-2.53-1.24-3.29-2.46c-2.6-4.23-3.84-9.13-4.93-14s-2.1-9.77-4.3-14.21-5.8-8.46-10.53-10-10.6.12-13,4.46-.88,9.79,1.15,14.33A76.64,76.64,0,0,0,61.46,336.2a6.38,6.38,0,0,1,1.89,3.44c.16,2.39-2.52,4-4.91,4.2-2.71.18-5.36-.78-8-1.14s-5.82,0-7.43,2.22c-2.25,3-.29,7.31,1.93,10.36A66.22,66.22,0,0,0,61.08,371c2.24,1.53,4.63,3,6.18,5.2s2,5.5.18,7.52-5.07,2-7.54.84-4.41-3.11-6.64-4.66c-4.16-2.9-10.19-4.11-14.16-.94-2.6,2.08-3.7,5.64-3.51,9a25,25,0,0,0,3,9.48,66.53,66.53,0,0,0,22.61,26.15c9.75,6.4,19.4,9.93,31,8.82" transform="translate(-10.37 -9.15)"/><path class="cls-2" d="M90.71,432.39c-.39-10.82-2.39-36.53-4.3-48.85q-.73-4.62-1.45-9.12c-.48-3-.95-6-1.6-8.83a155.37,155.37,0,0,0-4.68-16.32c-1.75-5.11-3.59-9.91-5.34-14.38s-3.49-8.61-5.23-12.32a122.29,122.29,0,0,0-9.48-16.87c-1.27-1.9-2.3-3.35-3-4.32l-.82-1.1-.29-.36a3.74,3.74,0,0,0,.25.4l.77,1.12c.69,1,1.69,2.45,2.94,4.37a128.26,128.26,0,0,1,9.31,16.92c1.71,3.7,3.41,7.84,5.16,12.31s3.56,9.28,5.28,14.39a153.25,153.25,0,0,1,4.64,16.26c.65,2.87,1.12,5.81,1.6,8.81s1,6,1.44,9.12c1.91,12.31,3.92,38,4.33,48.79" transform="translate(-10.37 -9.15)"/><path class="cls-2" d="M83.24,365.5a7.22,7.22,0,0,0,.67-1.33c.41-.87,1-2.15,1.61-3.74,1.31-3.18,3-7.62,4.8-12.53s3.57-9.31,5-12.45c.68-1.57,1.25-2.84,1.66-3.71a7,7,0,0,0,.57-1.38,9,9,0,0,0-.75,1.29c-.47.85-1.09,2.09-1.81,3.65-1.47,3.11-3.27,7.51-5.1,12.42S86.4,357,85.18,360.29c-.59,1.54-1.08,2.82-1.45,3.8A8.52,8.52,0,0,0,83.24,365.5Z" transform="translate(-10.37 -9.15)"/><path class="cls-2" d="M42.19,346.49s.14.08.42.19l1.25.44c1.09.37,2.66.91,4.57,1.63,3.85,1.43,9.09,3.59,14.76,6.22s10.69,5.27,14.27,7.27c1.8,1,3.23,1.83,4.22,2.4l1.14.66c.27.15.41.22.42.2a1.57,1.57,0,0,0-.36-.28l-1.1-.75c-1-.63-2.36-1.52-4.14-2.55-3.54-2.09-8.55-4.76-14.23-7.42s-11-4.75-14.85-6.09c-1.94-.68-3.53-1.17-4.64-1.49l-1.27-.34A2.65,2.65,0,0,0,42.19,346.49Z" transform="translate(-10.37 -9.15)"/><path class="cls-2" d="M89.86,417.58s.15-.14.41-.45l1.13-1.35c1-1.18,2.34-2.92,4-5.1,3.32-4.34,7.73-10.48,12.51-17.32s9.13-13,12.37-17.4l3.87-5.2,1-1.41a3.21,3.21,0,0,0,.34-.52,2.6,2.6,0,0,0-.42.46L124,370.64c-1,1.18-2.34,2.92-4,5.1-3.32,4.34-7.73,10.48-12.51,17.32s-9.13,13-12.37,17.4l-3.87,5.19-1,1.42A2.57,2.57,0,0,0,89.86,417.58Z" transform="translate(-10.37 -9.15)"/><path class="cls-2" d="M37.27,384.67a3.67,3.67,0,0,0,.51.37l1.53,1L45,389.52c4.76,3,11.28,7.17,18.47,11.82S77.17,410.14,82,413c2.41,1.45,4.36,2.61,5.73,3.38l1.58.89a2.56,2.56,0,0,0,.57.27,3.14,3.14,0,0,0-.52-.36l-1.53-1-5.64-3.52c-4.75-3-11.27-7.17-18.47-11.82s-13.75-8.8-18.56-11.7c-2.4-1.45-4.36-2.6-5.72-3.38L37.84,385A2.63,2.63,0,0,0,37.27,384.67Z" transform="translate(-10.37 -9.15)"/><path class="cls-1" d="M55.71,236.76H138.6s-7.33-13.34-28.67-11.4c-20.38,1.86-21.41-6.56-31.77-7.6S59.16,224.67,55.71,236.76Z" transform="translate(-10.37 -9.15)"/><path class="cls-1" d="M339.39,90.14h79.39s-7-12.77-27.45-10.91C371.81,81,370.82,72.94,360.9,72S342.7,78.57,339.39,90.14Z" transform="translate(-10.37 -9.15)"/><path class="cls-2" d="M379.09,133H431s-4.59-8.35-18-7.14c-12.77,1.16-13.41-4.11-19.91-4.76S381.25,125.42,379.09,133Z" transform="translate(-10.37 -9.15)"/><path class="cls-3" d="M46.58,63.76H98.51s-4.59-8.35-18-7.14c-12.77,1.16-13.42-4.11-19.91-4.76S48.74,56.19,46.58,63.76Z" transform="translate(-10.37 -9.15)"/><path class="cls-2" d="M35.17,265.43H87.1s-4.59-8.35-18-7.14c-12.76,1.16-13.41-4.11-19.9-4.76S37.33,257.86,35.17,265.43Z" transform="translate(-10.37 -9.15)"/></g><g id="Floor"><path class="cls-4" d="M438.05,433.15c0,.14-95.74.26-213.83.26s-213.85-.12-213.85-.26,95.72-.26,213.85-.26S438.05,433,438.05,433.15Z" transform="translate(-10.37 -9.15)"/></g><g id="Earth"><path class="cls-5" d="M281,99.4s.13-.11.41-.31l1.2-.85c.52-.39,1.21-.81,1.95-1.42l2.57-2c.91-.83,2-1.72,3.05-2.75s2.26-2.18,3.38-3.52A63.25,63.25,0,0,0,300.68,79a65.39,65.39,0,0,0,9.67-29.11,48.74,48.74,0,0,0-1.83-18,32.8,32.8,0,0,0-10.29-16.26A25.9,25.9,0,0,0,289.56,11a32.31,32.31,0,0,0-9.51-1.29,64.39,64.39,0,0,0-17.95,3.1A127.39,127.39,0,0,0,233.7,25,131.07,131.07,0,0,0,216.54,37c-1.89,1.59-3.36,2.83-4.31,3.71l-1.12,1-.39.32.36-.36,1.07-1c.94-.91,2.39-2.17,4.26-3.79A127.53,127.53,0,0,1,262,12.3a64.16,64.16,0,0,1,18.08-3.15,32.75,32.75,0,0,1,9.66,1.31,26.29,26.29,0,0,1,8.85,4.71A33.38,33.38,0,0,1,309,31.7a48.84,48.84,0,0,1,1.81,18.23A65.24,65.24,0,0,1,301,79.19a63.82,63.82,0,0,1-7.23,9.52c-1.14,1.34-2.38,2.42-3.43,3.5s-2.16,1.91-3.09,2.73l-2.61,2c-.75.59-1.45,1-2,1.37l-1.24.82C281.14,99.32,281,99.4,281,99.4Z" transform="translate(-10.37 -9.15)"/><path class="cls-5" d="M150.11,178.08a52.92,52.92,0,0,1-7.9,1.8,61.38,61.38,0,0,1-22-.54,57.29,57.29,0,0,1-7.07-2,58.88,58.88,0,0,1-7.26-3.24,50.9,50.9,0,0,1-13.66-10.93,46.14,46.14,0,0,1-9.57-16.75,37.71,37.71,0,0,1-1.19-5,39.89,39.89,0,0,1-.65-5.14c-.09-.87,0-1.75-.06-2.62a23.27,23.27,0,0,1,.06-2.64c.07-.88.14-1.76.2-2.65s.27-1.76.41-2.64a50,50,0,0,1,2.85-10.17c.58-1.65,1.37-3.19,2.09-4.74.36-.78.81-1.51,1.21-2.26s.8-1.49,1.27-2.19a61.17,61.17,0,0,1,12.56-14.7,73.87,73.87,0,0,1,14.66-9.58,90.59,90.59,0,0,1,14.23-5.54A120.62,120.62,0,0,1,152,72.41c2.6-.24,4.62-.4,6-.46l1.56-.08H160l-.53.06-1.55.13c-1.37.09-3.39.29-6,.56A125.37,125.37,0,0,0,130.39,77a91.28,91.28,0,0,0-14.13,5.58,73,73,0,0,0-14.55,9.56,61,61,0,0,0-12.44,14.59c-.47.7-.85,1.44-1.26,2.18s-.83,1.47-1.19,2.24c-.71,1.54-1.49,3.07-2.07,4.69a50.14,50.14,0,0,0-2.82,10.08c-.13.87-.27,1.74-.4,2.61s-.13,1.75-.2,2.62a22.74,22.74,0,0,0-.06,2.61c0,.86,0,1.73,0,2.59a42.73,42.73,0,0,0,.64,5.08,36.3,36.3,0,0,0,1.18,4.89,45.63,45.63,0,0,0,9.44,16.6,50.59,50.59,0,0,0,13.51,10.86A52.81,52.81,0,0,0,120.28,179a62,62,0,0,0,21.9.7c2.57-.39,4.55-.81,5.89-1.12l1.51-.37Z" transform="translate(-10.37 -9.15)"/><path class="cls-5" d="M306.75,134.29c-1-2.22-1.21-4.68-1.86-7a4.65,4.65,0,0,0-2.11-3.14,19.18,19.18,0,0,0-2.52-.57c-3-.89-3.77-5-6.58-6.31a9.4,9.4,0,0,0-2.82-.59c-3.76-.44-7.65-1.74-10-4.69a18.47,18.47,0,0,0-2.32-2.86,2.77,2.77,0,0,0-3.39-.32l2.35,4.75a12.37,12.37,0,0,0,2.63,3.94,4.24,4.24,0,0,0,4.42,1,2.9,2.9,0,0,1,1.49-.53,1.63,1.63,0,0,1,1,.62c2.05,2.27,1.38,6-.62,8.34s-4.93,3.51-7.77,4.63a6,6,0,0,1-3.17.62c-2-.36-3-2.5-3.58-4.42-1.29-4.25-1.91-8.87-4.54-12.45a15.56,15.56,0,0,1-2.39-3.47c-.54-1.43-.42-3.1-1.27-4.35s-2.78-2.08-2.91-3.66a2.92,2.92,0,0,1,1.86-2.57c1-.49,2.16-.64,3.2-1.06.42-.18.88-.48.89-.92,0-.67-.92-.94-1.16-1.56s.46-1.35.77-2c.65-1.55-1-3.12-2.54-3.76s-3.44-1.09-4.17-2.61a8.7,8.7,0,0,1-.51-2.27,5,5,0,0,0-3.71-4.09c-1.95-.32-4.11,1.41-3.79,3.34.19,1.07,1,1.89,1.41,2.87s.32,2.45-.7,2.76c-1.66.51-3.27-2.53-4.66-1.49.57,2,1.13,3.9,1.7,5.87-2.19,1.11-4.81-.9-5.74-3.19s-1-4.87-2.08-7.06-4.11-3.83-6-2.28c-.1,2.82,3.63,4,5.28,6.25,1.19,1.65,1,4.33-.75,5.38s-4.52-.78-3.85-2.7c.24-.67.79-1.22.86-1.94.06-.88-.69-1.6-1.37-2.17l-3.19-2.68a6.82,6.82,0,0,0-2.26-1.43c-2.19-.63-4.38,1.15-5.54,3.1s-1.81,4.26-3.41,5.9c-2.3,2.38-6.66,2.52-8.82,0s-1.06-7.15,2.13-8.06c1.2-.33,2.73-.3,3.36-1.36,1.11-1.89-2.06-4.3-1-6.2.84-1.46,3.06-.8,4.68-1.29s2.51-2.11,3.46-3.5,2.41-2.78,4.06-2.41a5.14,5.14,0,0,1,.17-2.89,1.77,1.77,0,0,1,2.43-.89c-.81,1.34.16,3.19,1.57,3.86a8.68,8.68,0,0,0,4.62.33c1.55-.19,3.5-.76,3.63-2.32a5.15,5.15,0,0,1,0-1.52c.69-1.85,4.11.7,5.43-.79.76-.78-.08-2.16-1.14-2.41s-2.14.13-3.22.16-2.4-.53-2.45-1.6,1.15-1.83,1.27-2.88c.21-1.77-2.8-2.23-3.87-.79s-.68,3.43-.36,5.19.49,3.84-.81,5.07c-.55.84-2,.4-2.47-.49a7,7,0,0,1-.46-3,2.57,2.57,0,0,0-1.51-2.43,5.31,5.31,0,0,0-2.11.24c-2.76.33-4.68-3.24-3.81-5.87s3.37-4.35,5.79-5.69c1.78-1,4-1.91,5.74-.91.83.46,1.4,1.25,2.21,1.73,1.39.82,3.12.52,4.72.56a11,11,0,0,1,6.9,2.68c.72.65,1.38,1.72.83,2.5s-2.33,1-2,2a3.44,3.44,0,0,0,4.31-2.78,2.89,2.89,0,0,1,1.67,2.35,5.12,5.12,0,0,1,7.53.62,6.32,6.32,0,0,0,1.4,1.79c.63.41,1.74.21,1.82-.54a1.53,1.53,0,0,0-.13-.7c-.38-1.08-.77-2.14-1.16-3.2,1.48-.79,3.22.44,4.22,1.78,3.71,5,6.36,2,11.6,2.79,3.53.54,5.09,2.8,7.08,5.55,6.13,8.43,14.21,15.35,19.78,24.17.59.92,1.13,1.85,1.63,2.8-.09-.23-.17-.47-.27-.71A97.67,97.67,0,0,0,301.69,78c-.69-1.11-1.38-2.2-2.1-3.28-.44-.66-.9-1.35-1.36-2-.59-.85-1.21-1.68-1.82-2.5-.5-.67-1-1.32-1.5-2-.34-.45-.71-.89-1.07-1.34s-.8-1-1.24-1.49l-1.33-1.53a6.2,6.2,0,0,0-.43-.48c-.46-.54-.95-1.06-1.44-1.59a.43.43,0,0,0-.15-.15,5.51,5.51,0,0,0-.41-.43c-.4-.45-.82-.88-1.24-1.3-.68-.7-1.38-1.4-2.09-2.07s-1.19-1.14-1.81-1.69-1.08-1-1.63-1.46-1.08-.94-1.63-1.4-1.35-1.12-2.05-1.68h0c-1.91-1.54-3.9-3-5.93-4.36-.5-.35-1-.68-1.5-1s-1-.67-1.54-1-1-.65-1.56-1-1-.63-1.57-.93-.84-.5-1.27-.72a5.93,5.93,0,0,0-.65-.36c-.9-.51-1.82-1-2.74-1.46-.46-.24-.92-.48-1.39-.7s-1.19-.59-1.8-.86a1.69,1.69,0,0,0-.27-.12c-.54-.26-1.07-.51-1.63-.75l-2.33-1c-.89-.37-1.78-.73-2.68-1.06s-2-.75-3-1.08-2.05-.68-3.08-1-2.06-.6-3.11-.89c-2.06-.55-4.15-1-6.26-1.47l-.11,0c-.81-.15-1.62-.31-2.43-.44l-.16,0q-.53-.11-1.08-.18c-1.5-.25-3-.46-4.57-.63a4.63,4.63,0,0,0-.55-.06c-.44-.07-.89-.1-1.35-.15-1-.09-2-.17-3.06-.23s-2.14-.13-3.22-.16-2.25-.07-3.38-.07q-4.47,0-8.85.4c-.69,0-1.38.11-2.06.19l-2.14.25c-.71.1-1.43.19-2.12.31l-2.13.34c-.6.1-1.22.21-1.82.34-1.49.28-3,.6-4.43.95-.68.16-1.36.33-2,.52s-1.37.37-2,.56c-1.13.31-2.22.66-3.32,1h0c-.89.3-1.8.6-2.67.91,0,0-.05,0-.06,0-.91.31-1.78.65-2.67,1l-.14,0c-.81.32-1.62.65-2.41,1-1,.41-2,.85-3,1.3-.82.38-1.63.76-2.43,1.16s-1.71.85-2.55,1.3l-.09,0c-.81.43-1.62.88-2.41,1.34s-1.64.93-2.45,1.44h0c-.76.46-1.51.92-2.25,1.39-.29.18-.56.37-.84.56-.8.51-1.56,1-2.34,1.57-.95.65-1.87,1.33-2.79,2s-1.6,1.22-2.38,1.84a101,101,0,0,0-12.46,11.82c-1.35,1.49-2.62,3-3.86,4.57-1,1.33-2.06,2.68-3,4.07q-1.32,1.81-2.53,3.71,1.22-1.89,2.53-3.71l.76-.08a11.72,11.72,0,0,0,4.22-.68,25.51,25.51,0,0,0,3.1-2.41c2.76-2,7.28-2.33,8-5.63.25-1.11-.05-2.32.36-3.38.78-2,3.43-2.27,5.55-2.23.91,0,2,.12,2.38.92a2.28,2.28,0,0,1-.09,1.84,17.26,17.26,0,0,1-7.28,8.94c-2.76,1.68-6.36,3-7.12,6.12.38,1.06,2.31,1,2.47,2.09.11.89-1,1.35-1.44,2.15-.6,1.15.78,2.56,2.09,2.5a5.77,5.77,0,0,0,3.38-1.9c2.89-2.68,5.92-5.57,7-9.37.45-1.57.6-3.41,1.87-4.46a3.1,3.1,0,0,1,4.71,1.51c1.26-.7,3.21-1.23,3.86.08a6.54,6.54,0,0,1,.27,1.49c.41,2,3.18,3,3.47,5,.33,2.36-2.7,3.59-5.06,4q-3.21.49-6.42,1a6,6,0,0,0-2.67.85A2.08,2.08,0,0,0,157,83a6.29,6.29,0,0,0,1.11,1.14c1.78,1.78.32,5.44-2.19,5.52-.85,0-1.69-.28-2.55-.31-2.54-.12-4.55,2.12-5.76,4.36s-2.11,4.79-4.14,6.31c-3.26,2.46-8.89,1.89-10.48,5.66-.63,1.52-.3,3.23,0,4.87s.37,3.42-.58,4.77-3.38,1.62-4.08.13a3.69,3.69,0,0,1-.1-2.11c.39-2.35.75-4.69,1.12-7,.26-1.75.5-3.7-.53-5.12-1.44-2-4.68-1.81-6.55-.21s-2.63,4.11-3.15,6.5a28.32,28.32,0,0,1-1.81,6.31h0c-.34,2-.6,4-.81,6s-.35,4.11-.43,6.2a9,9,0,0,0,.81-.76c1-1,3-5.39,4.82-3.25a1.61,1.61,0,0,1,0,2c-.55.72-1.66.88-2.09,1.65-.52.92.21,2.06,1.06,2.67a9.4,9.4,0,0,1,2.51,1.87c1.16,1.66,0,4.19,1.17,5.88,1,1.46,3,1.56,4.79,1.75l.6.09c.49-3.49,2.13-6.33,6.89-7.4,6.56-1.49,15.19,3.94,18.88,8.89,4.13,5.54,6.08,13.37,12.39,16.15,4.52,2,10.94,1.27,13.15,5.69,2,4-1.46,8.42-2,12.81-.33,2.91.62,5.79.85,8.7s-.66,6.31-3.3,7.53c-1.48.66-3.33.59-4.52,1.7-2.11,2-.38,6.12-2.49,8.12a11.23,11.23,0,0,1-2.68,1.41c-4.75,2.39-4.62,9.37-2.41,14.21l.23.5a100.14,100.14,0,0,0,51.4,14.2,99.68,99.68,0,0,0,47-11.71h0a100.71,100.71,0,0,0,8.87-5.34,99.25,99.25,0,0,0,12.45-9.9,96.71,96.71,0,0,0,7.61-7.94c1.68-1.94,3.26-4,4.79-6,.77-1.07,1.54-2.13,2.25-3.22a99.94,99.94,0,0,0,16.29-42.63c.3-2.25.54-4.54.69-6.84a5.74,5.74,0,0,1-4,1.8C309.7,138.52,307.71,136.51,306.75,134.29Z" transform="translate(-10.37 -9.15)"/><g class="cls-6"><path class="cls-7" d="M306.75,134.29c-1-2.22-1.21-4.68-1.86-7a4.65,4.65,0,0,0-2.11-3.14,19.18,19.18,0,0,0-2.52-.57c-3-.89-3.77-5-6.58-6.31a9.4,9.4,0,0,0-2.82-.59c-3.76-.44-7.65-1.74-10-4.69a18.47,18.47,0,0,0-2.32-2.86,2.77,2.77,0,0,0-3.39-.32l2.35,4.75a12.37,12.37,0,0,0,2.63,3.94,4.24,4.24,0,0,0,4.42,1,2.9,2.9,0,0,1,1.49-.53,1.63,1.63,0,0,1,1,.62c2.05,2.27,1.38,6-.62,8.34s-4.93,3.51-7.77,4.63a6,6,0,0,1-3.17.62c-2-.36-3-2.5-3.58-4.42-1.29-4.25-1.91-8.87-4.54-12.45a15.56,15.56,0,0,1-2.39-3.47c-.54-1.43-.42-3.1-1.27-4.35s-2.78-2.08-2.91-3.66a2.92,2.92,0,0,1,1.86-2.57c1-.49,2.16-.64,3.2-1.06.42-.18.88-.48.89-.92,0-.67-.92-.94-1.16-1.56s.46-1.35.77-2c.65-1.55-1-3.12-2.54-3.76s-3.44-1.09-4.17-2.61a8.7,8.7,0,0,1-.51-2.27,5,5,0,0,0-3.71-4.09c-1.95-.32-4.11,1.41-3.79,3.34.19,1.07,1,1.89,1.41,2.87s.32,2.45-.7,2.76c-1.66.51-3.27-2.53-4.66-1.49.57,2,1.13,3.9,1.7,5.87-2.19,1.11-4.81-.9-5.74-3.19s-1-4.87-2.08-7.06-4.11-3.83-6-2.28c-.1,2.82,3.63,4,5.28,6.25,1.19,1.65,1,4.33-.75,5.38s-4.52-.78-3.85-2.7c.24-.67.79-1.22.86-1.94.06-.88-.69-1.6-1.37-2.17l-3.19-2.68a6.82,6.82,0,0,0-2.26-1.43c-2.19-.63-4.38,1.15-5.54,3.1s-1.81,4.26-3.41,5.9c-2.3,2.38-6.66,2.52-8.82,0s-1.06-7.15,2.13-8.06c1.2-.33,2.73-.3,3.36-1.36,1.11-1.89-2.06-4.3-1-6.2.84-1.46,3.06-.8,4.68-1.29s2.51-2.11,3.46-3.5,2.41-2.78,4.06-2.41a5.14,5.14,0,0,1,.17-2.89,1.77,1.77,0,0,1,2.43-.89c-.81,1.34.16,3.19,1.57,3.86a8.68,8.68,0,0,0,4.62.33c1.55-.19,3.5-.76,3.63-2.32a5.15,5.15,0,0,1,0-1.52c.69-1.85,4.11.7,5.43-.79.76-.78-.08-2.16-1.14-2.41s-2.14.13-3.22.16-2.4-.53-2.45-1.6,1.15-1.83,1.27-2.88c.21-1.77-2.8-2.23-3.87-.79s-.68,3.43-.36,5.19.49,3.84-.81,5.07c-.55.84-2,.4-2.47-.49a7,7,0,0,1-.46-3,2.57,2.57,0,0,0-1.51-2.43,5.31,5.31,0,0,0-2.11.24c-2.76.33-4.68-3.24-3.81-5.87s3.37-4.35,5.79-5.69c1.78-1,4-1.91,5.74-.91.83.46,1.4,1.25,2.21,1.73,1.39.82,3.12.52,4.72.56a11,11,0,0,1,6.9,2.68c.72.65,1.38,1.72.83,2.5s-2.33,1-2,2a3.44,3.44,0,0,0,4.31-2.78,2.89,2.89,0,0,1,1.67,2.35,5.12,5.12,0,0,1,7.53.62,6.32,6.32,0,0,0,1.4,1.79c.63.41,1.74.21,1.82-.54a1.53,1.53,0,0,0-.13-.7c-.38-1.08-.77-2.14-1.16-3.2,1.48-.79,3.22.44,4.22,1.78,3.71,5,6.36,2,11.6,2.79,3.53.54,5.09,2.8,7.08,5.55,6.13,8.43,14.21,15.35,19.78,24.17.59.92,1.13,1.85,1.63,2.8-.09-.23-.17-.47-.27-.71A97.67,97.67,0,0,0,301.69,78c-.69-1.11-1.38-2.2-2.1-3.28-.44-.66-.9-1.35-1.36-2-.59-.85-1.21-1.68-1.82-2.5-.5-.67-1-1.32-1.5-2-.34-.45-.71-.89-1.07-1.34s-.8-1-1.24-1.49l-1.33-1.53a6.2,6.2,0,0,0-.43-.48c-.46-.54-.95-1.06-1.44-1.59a.43.43,0,0,0-.15-.15,5.51,5.51,0,0,0-.41-.43c-.4-.45-.82-.88-1.24-1.3-.68-.7-1.38-1.4-2.09-2.07s-1.19-1.14-1.81-1.69-1.08-1-1.63-1.46-1.08-.94-1.63-1.4-1.35-1.12-2.05-1.68h0c-1.91-1.54-3.9-3-5.93-4.36-.5-.35-1-.68-1.5-1s-1-.67-1.54-1-1-.65-1.56-1-1-.63-1.57-.93-.84-.5-1.27-.72a5.93,5.93,0,0,0-.65-.36c-.9-.51-1.82-1-2.74-1.46-.46-.24-.92-.48-1.39-.7s-1.19-.59-1.8-.86a1.69,1.69,0,0,0-.27-.12c-.54-.26-1.07-.51-1.63-.75l-2.33-1c-.89-.37-1.78-.73-2.68-1.06s-2-.75-3-1.08-2.05-.68-3.08-1-2.06-.6-3.11-.89c-2.06-.55-4.15-1-6.26-1.47l-.11,0c-.81-.15-1.62-.31-2.43-.44l-.16,0q-.53-.11-1.08-.18c-1.5-.25-3-.46-4.57-.63a4.63,4.63,0,0,0-.55-.06c-.44-.07-.89-.1-1.35-.15-1-.09-2-.17-3.06-.23s-2.14-.13-3.22-.16-2.25-.07-3.38-.07q-4.47,0-8.85.4c-.69,0-1.38.11-2.06.19l-2.14.25c-.71.1-1.43.19-2.12.31l-2.13.34c-.6.1-1.22.21-1.82.34-1.49.28-3,.6-4.43.95-.68.16-1.36.33-2,.52s-1.37.37-2,.56c-1.13.31-2.22.66-3.32,1h0c-.89.3-1.8.6-2.67.91,0,0-.05,0-.06,0-.91.31-1.78.65-2.67,1l-.14,0c-.81.32-1.62.65-2.41,1-1,.41-2,.85-3,1.3-.82.38-1.63.76-2.43,1.16s-1.71.85-2.55,1.3l-.09,0c-.81.43-1.62.88-2.41,1.34s-1.64.93-2.45,1.44h0c-.76.46-1.51.92-2.25,1.39-.29.18-.56.37-.84.56-.8.51-1.56,1-2.34,1.57-.95.65-1.87,1.33-2.79,2s-1.6,1.22-2.38,1.84a101,101,0,0,0-12.46,11.82c-1.35,1.49-2.62,3-3.86,4.57-1,1.33-2.06,2.68-3,4.07q-1.32,1.81-2.53,3.71,1.22-1.89,2.53-3.71l.76-.08a11.72,11.72,0,0,0,4.22-.68,25.51,25.51,0,0,0,3.1-2.41c2.76-2,7.28-2.33,8-5.63.25-1.11-.05-2.32.36-3.38.78-2,3.43-2.27,5.55-2.23.91,0,2,.12,2.38.92a2.28,2.28,0,0,1-.09,1.84,17.26,17.26,0,0,1-7.28,8.94c-2.76,1.68-6.36,3-7.12,6.12.38,1.06,2.31,1,2.47,2.09.11.89-1,1.35-1.44,2.15-.6,1.15.78,2.56,2.09,2.5a5.77,5.77,0,0,0,3.38-1.9c2.89-2.68,5.92-5.57,7-9.37.45-1.57.6-3.41,1.87-4.46a3.1,3.1,0,0,1,4.71,1.51c1.26-.7,3.21-1.23,3.86.08a6.54,6.54,0,0,1,.27,1.49c.41,2,3.18,3,3.47,5,.33,2.36-2.7,3.59-5.06,4q-3.21.49-6.42,1a6,6,0,0,0-2.67.85A2.08,2.08,0,0,0,157,83a6.29,6.29,0,0,0,1.11,1.14c1.78,1.78.32,5.44-2.19,5.52-.85,0-1.69-.28-2.55-.31-2.54-.12-4.55,2.12-5.76,4.36s-2.11,4.79-4.14,6.31c-3.26,2.46-8.89,1.89-10.48,5.66-.63,1.52-.3,3.23,0,4.87s.37,3.42-.58,4.77-3.38,1.62-4.08.13a3.69,3.69,0,0,1-.1-2.11c.39-2.35.75-4.69,1.12-7,.26-1.75.5-3.7-.53-5.12-1.44-2-4.68-1.81-6.55-.21s-2.63,4.11-3.15,6.5a28.32,28.32,0,0,1-1.81,6.31h0c-.34,2-.6,4-.81,6s-.35,4.11-.43,6.2a9,9,0,0,0,.81-.76c1-1,3-5.39,4.82-3.25a1.61,1.61,0,0,1,0,2c-.55.72-1.66.88-2.09,1.65-.52.92.21,2.06,1.06,2.67a9.4,9.4,0,0,1,2.51,1.87c1.16,1.66,0,4.19,1.17,5.88,1,1.46,3,1.56,4.79,1.75l.6.09c.49-3.49,2.13-6.33,6.89-7.4,6.56-1.49,15.19,3.94,18.88,8.89,4.13,5.54,6.08,13.37,12.39,16.15,4.52,2,10.94,1.27,13.15,5.69,2,4-1.46,8.42-2,12.81-.33,2.91.62,5.79.85,8.7s-.66,6.31-3.3,7.53c-1.48.66-3.33.59-4.52,1.7-2.11,2-.38,6.12-2.49,8.12a11.23,11.23,0,0,1-2.68,1.41c-4.75,2.39-4.62,9.37-2.41,14.21l.23.5a100.14,100.14,0,0,0,51.4,14.2,99.68,99.68,0,0,0,47-11.71h0a100.71,100.71,0,0,0,8.87-5.34,99.25,99.25,0,0,0,12.45-9.9,96.71,96.71,0,0,0,7.61-7.94c1.68-1.94,3.26-4,4.79-6,.77-1.07,1.54-2.13,2.25-3.22a99.94,99.94,0,0,0,16.29-42.63c.3-2.25.54-4.54.69-6.84a5.74,5.74,0,0,1-4,1.8C309.7,138.52,307.71,136.51,306.75,134.29Z" transform="translate(-10.37 -9.15)"/></g><path class="cls-8" d="M192.21,56.18c-2,1.18-3,3.42-4.57,5.16s-4.28,3-6.09,1.52a4.18,4.18,0,0,1-1.36-2.94,7.65,7.65,0,0,1,1.08-4.6c.87-1.4,2.18-2.51,2.91-4s.59-3.65-.91-4.34c-.81-.38-1.83-.23-2.55-.76-1.29-.95-.37-3.2,1.13-3.77s3.17-.12,4.77,0c5.81.37,10.08-3.44,14.45-6.59,3.4-2.46,10.63-5.36,14.56-2.85,1.57,1,2.18,3.57.7,4.7-.66.51-1.57.62-2.18,1.18s-.85,1.78-1.27,2.69c-1.1,2.35-4.27,3.2-5.29,5.59-.62,1.43-.34,3.22-1.29,4.46a5.41,5.41,0,0,1-3.25,1.62L195.47,55A11.59,11.59,0,0,0,192.21,56.18Z" transform="translate(-10.37 -9.15)"/><path class="cls-8" d="M259.93,179.53c-2.51,3.79-3,8.52-3.66,13s-1.9,9.26-5.35,12.22-9.79,2.78-11.69-1.35c-1-2.24-.5-4.88-1.06-7.28-.73-3.13-3.23-5.55-4.41-8.53-1-2.55-1-5.37-1.09-8.11-.45-15-4.1-30.61-14.3-41.58a9.84,9.84,0,0,0-4.45-3.14,5.68,5.68,0,0,0-5.85,2c-.82,1.08-1.24,2.46-2.25,3.38-2.17,2-6,.56-7.43-2s-1.26-5.71-1-8.65l.9-10.94c.16-1.91.37-4,1.63-5.4,1.78-2.06,5-2.16,7.15-3.79,2.85-2.14,3.23-6.22,5-9.3s7.44-4.38,8.27-.91c6-12.76,19.13,6.19,27,4.77,2.28-.42,4.5-1.51,6.79-1.19,4,.57,6.13,5,7.51,8.87q3.42,9.57,6.85,19.14c.87,2.43,2,5.13,4.4,6.06,1.84.72,4,.17,5.84.85,4.92,1.79,3.32,9.52-.64,12.94s-9.5,5.58-11.38,10.46c-1.42,3.68-.29,8-1.81,11.62C263.79,175.3,261.49,177.18,259.93,179.53Z" transform="translate(-10.37 -9.15)"/><path class="cls-8" d="M278.59,183.69c-1.61.22-3.52-.57-4.75.5a5.42,5.42,0,0,0-1.16,2.56,5.44,5.44,0,0,1-2.29,3.13,3.43,3.43,0,0,1-3.73-.07,2.52,2.52,0,0,1-.51-3.5c.39-.45,1-.72,1.39-1.14,2.14-2,.68-5.78,2.31-8.19,1-1.42,2.47-2.86,3.53-4.3.81-1.1,1.11-2,2.6-2.28C282.51,169.12,285.46,182.73,278.59,183.69Z" transform="translate(-10.37 -9.15)"/><path class="cls-5" d="M129,156.49c-.32-2.87.63-5.74.68-8.64,0-2-.11-4.11-.14-6.12a27.26,27.26,0,0,1-5.09-.72,1.57,1.57,0,0,1-.94-.47,1.82,1.82,0,0,1-.2-1.06c-.13-2.26-2.3-3.75-4.25-4.87a17.16,17.16,0,0,0-3.1-1.53c0,.24,0,.46,0,.7a100.18,100.18,0,0,0,6.37,31.8,95.65,95.65,0,0,0,6.13,13.13c1,1.82,2.06,3.62,3.18,5.38,1.4,2.17,2.86,4.29,4.43,6.34s3,3.89,4.65,5.73a97.38,97.38,0,0,0,7.08,7.29q3.32,3.09,6.9,5.87c-5.47-14.69-10.62-29.67-20-42.17C132.31,163.88,129.49,160.55,129,156.49Z" transform="translate(-10.37 -9.15)"/><path class="cls-8" d="M116,128.34c0,.61,0,1.21,0,1.81s0,1,0,1.47c0-.49,0-1,0-1.47S116,129,116,128.34Z" transform="translate(-10.37 -9.15)"/><g class="cls-9"><path class="cls-8" d="M160.36,213.38c.84.57,1.7,1.12,2.56,1.66.6.38,1.21.75,1.82,1.11-.61-.36-1.22-.73-1.82-1.11C162.06,214.5,161.2,214,160.36,213.38Z" transform="translate(-10.37 -9.15)"/></g><path class="cls-5" d="M278.07,150.62c4-3.42,5.56-11.15.64-12.94-1.86-.68-4-.13-5.84-.85-2.41-.93-3.53-3.63-4.4-6.06q-3.44-9.57-6.85-19.14c-1.38-3.85-3.47-8.3-7.51-8.87-2.29-.32-4.51.77-6.79,1.19-7.83,1.42-21-17.53-27-4.77-.83-3.47-6.47-2.17-8.27.91s-2.18,7.16-5,9.3c-2.18,1.63-5.37,1.73-7.15,3.79-1.26,1.44-1.47,3.49-1.63,5.4l-.9,10.94c-.25,2.94-.45,6.08,1,8.65s5.26,4,7.43,2c1-.92,1.43-2.3,2.25-3.38a5.68,5.68,0,0,1,5.85-2,9.84,9.84,0,0,1,4.45,3.14c10.2,11,13.85,26.6,14.3,41.58.08,2.74.08,5.56,1.09,8.11,1.18,3,3.68,5.4,4.41,8.53.56,2.4,0,5,1.06,7.28,1.9,4.13,8.24,4.31,11.69,1.35s4.65-7.73,5.35-12.22,1.15-9.22,3.66-13c1.56-2.35,3.86-4.23,4.95-6.83,1.52-3.63.39-7.94,1.81-11.62C268.57,156.2,274.12,154,278.07,150.62Z" transform="translate(-10.37 -9.15)"/><g class="cls-9"><path class="cls-8" d="M116,126v0h0v0c0,.19,0,.36,0,.55,0,.6,0,1.21,0,1.81,0-.6,0-1.21,0-1.81C116,126.34,116,126.17,116,126Z" transform="translate(-10.37 -9.15)"/></g><g class="cls-9"><path class="cls-8" d="M116,131.62c0,.49,0,1,0,1.46h0C116,132.6,116,132.11,116,131.62Z" transform="translate(-10.37 -9.15)"/></g><path class="cls-5" d="M129.74,137.84l-.6-.09c-1.76-.19-3.82-.29-4.79-1.75-1.12-1.69,0-4.22-1.17-5.88a9.4,9.4,0,0,0-2.51-1.87c-.85-.61-1.58-1.75-1.06-2.67.43-.77,1.54-.93,2.09-1.65a1.61,1.61,0,0,0,0-2c-1.81-2.14-3.82,2.22-4.82,3.25a9,9,0,0,1-.81.76v0c0,.19,0,.36,0,.55,0,.6,0,1.21,0,1.81s0,1.21,0,1.81,0,1,0,1.47,0,1,0,1.46a17.16,17.16,0,0,1,3.1,1.53c2,1.12,4.12,2.61,4.25,4.87a1.82,1.82,0,0,0,.2,1.06,1.57,1.57,0,0,0,.94.47,27.26,27.26,0,0,0,5.09.72" transform="translate(-10.37 -9.15)"/><path class="cls-5" d="M129.57,141.73c0,2,.17,4.12.14,6.12-.05,2.9-1,5.77-.68,8.64.46,4.06,3.28,7.39,5.74,10.66,9.36,12.5,14.51,27.48,20,42.17h0c1,.81,2,1.57,3.09,2.31.83.6,1.66,1.18,2.5,1.75s1.7,1.12,2.56,1.66c.6.38,1.21.75,1.82,1.11l-.23-.5c-2.21-4.84-2.34-11.82,2.41-14.21A11.23,11.23,0,0,0,169.6,200c2.11-2,.38-6.13,2.49-8.12,1.19-1.11,3-1,4.52-1.7,2.65-1.22,3.5-4.62,3.3-7.53s-1.18-5.79-.85-8.7c.53-4.39,3.95-8.84,2-12.81-2.21-4.42-8.63-3.71-13.15-5.69-6.31-2.78-8.26-10.61-12.39-16.15-3.69-5-12.32-10.38-18.88-8.89-4.76,1.07-6.4,3.91-6.89,7.4" transform="translate(-10.37 -9.15)"/><path class="cls-5" d="M122.24,101c1.87-1.6,5.11-1.79,6.55.21,1,1.42.79,3.37.53,5.12-.37,2.35-.73,4.69-1.12,7a3.69,3.69,0,0,0,.1,2.11c.7,1.49,3.14,1.2,4.08-.13s.84-3.15.58-4.77-.58-3.35,0-4.87c1.59-3.77,7.22-3.2,10.48-5.66,2-1.52,2.94-4.08,4.14-6.31s3.22-4.48,5.76-4.36c.86,0,1.7.34,2.55.31,2.51-.08,4-3.74,2.19-5.52A6.29,6.29,0,0,1,157,83a2.08,2.08,0,0,1,.79-2.49,6,6,0,0,1,2.67-.85q3.21-.52,6.42-1c2.36-.36,5.39-1.59,5.06-4-.29-2-3.06-3-3.47-5a6.54,6.54,0,0,0-.27-1.49c-.65-1.31-2.6-.78-3.86-.08a3.1,3.1,0,0,0-4.71-1.51c-1.27,1-1.42,2.89-1.87,4.46-1,3.8-4.07,6.69-7,9.37a5.77,5.77,0,0,1-3.38,1.9c-1.31.06-2.69-1.35-2.09-2.5.41-.8,1.55-1.26,1.44-2.15-.16-1.11-2.09-1-2.47-2.09.76-3.14,4.36-4.44,7.12-6.12a17.26,17.26,0,0,0,7.28-8.94,2.28,2.28,0,0,0,.09-1.84c-.41-.8-1.47-.92-2.38-.92-2.12,0-4.77.25-5.55,2.23-.41,1.06-.11,2.27-.36,3.38-.75,3.3-5.27,3.66-8,5.63a25.51,25.51,0,0,1-3.1,2.41,11.72,11.72,0,0,1-4.22.68l-.76.08q-1.32,1.81-2.53,3.71t-2.34,3.82a98.85,98.85,0,0,0-8.69,19.38q-1.17,3.57-2.06,7.23t-1.51,7.44a28.32,28.32,0,0,0,1.81-6.31C119.61,105.08,120.39,102.57,122.24,101Z" transform="translate(-10.37 -9.15)"/><path class="cls-5" d="M206.3,51.62c.95-1.24.67-3,1.29-4.46,1-2.39,4.19-3.24,5.29-5.59.42-.91.53-2,1.27-2.69s1.52-.67,2.18-1.18c1.48-1.13.87-3.7-.7-4.7-3.93-2.51-11.16.39-14.56,2.85-4.37,3.15-8.64,7-14.45,6.59-1.6-.1-3.27-.54-4.77,0s-2.42,2.82-1.13,3.77c.72.53,1.74.38,2.55.76,1.5.69,1.65,2.86.91,4.34s-2,2.59-2.91,4a7.65,7.65,0,0,0-1.08,4.6,4.18,4.18,0,0,0,1.36,2.94c1.81,1.45,4.56.21,6.09-1.52s2.59-4,4.57-5.16A11.59,11.59,0,0,1,195.47,55l7.58-1.8A5.41,5.41,0,0,0,206.3,51.62Z" transform="translate(-10.37 -9.15)"/><g class="cls-9"><path class="cls-8" d="M310,95.15c.48,1.27.93,2.55,1.35,3.83-.42-1.28-.87-2.56-1.35-3.83,0,0,0,0,0,0h0Z" transform="translate(-10.37 -9.15)"/></g><path class="cls-5" d="M316.31,128.77c0-1.44-.05-2.87-.13-4.3s-.19-2.84-.33-4.25c-.11-1.14-.24-2.27-.4-3.39s-.33-2.37-.53-3.55a95.12,95.12,0,0,0-2.34-10.41c-.37-1.31-.77-2.6-1.19-3.89s-.87-2.56-1.35-3.83v0h0c-.5-.95-1-1.88-1.63-2.8-5.57-8.82-13.65-15.74-19.78-24.17-2-2.75-3.55-5-7.08-5.55-5.24-.81-7.89,2.17-11.6-2.79-1-1.34-2.74-2.57-4.22-1.78.39,1.06.78,2.12,1.16,3.2a1.53,1.53,0,0,1,.13.7c-.08.75-1.19,1-1.82.54a6.32,6.32,0,0,1-1.4-1.79,5.12,5.12,0,0,0-7.53-.62,2.89,2.89,0,0,0-1.67-2.35,3.44,3.44,0,0,1-4.31,2.78c-.3-1,1.42-1.14,2-2s-.11-1.85-.83-2.5a11,11,0,0,0-6.9-2.68c-1.6,0-3.33.26-4.72-.56-.81-.48-1.38-1.27-2.21-1.73-1.76-1-4-.08-5.74.91-2.42,1.34-4.93,3-5.79,5.69s1.05,6.2,3.81,5.87a5.31,5.31,0,0,1,2.11-.24,2.57,2.57,0,0,1,1.51,2.43,7,7,0,0,0,.46,3c.47.89,1.92,1.33,2.47.49,1.3-1.23,1.14-3.31.81-5.07s-.68-3.75.36-5.19,4.08-1,3.87.79c-.12,1-1.31,1.81-1.27,2.88s1.37,1.64,2.45,1.6,2.17-.43,3.22-.16,1.9,1.63,1.14,2.41c-1.32,1.49-4.74-1.06-5.43.79a5.15,5.15,0,0,0,0,1.52c-.13,1.56-2.08,2.13-3.63,2.32a8.68,8.68,0,0,1-4.62-.33c-1.41-.67-2.38-2.52-1.57-3.86a1.77,1.77,0,0,0-2.43.89,5.14,5.14,0,0,0-.17,2.89c-1.65-.37-3.12,1-4.06,2.41s-1.86,3-3.46,3.5-3.84-.17-4.68,1.29c-1.09,1.9,2.08,4.31,1,6.2-.63,1.06-2.16,1-3.36,1.36-3.19.91-4.3,5.57-2.13,8.06s6.52,2.35,8.82,0c1.6-1.64,2.25-3.94,3.41-5.9s3.35-3.73,5.54-3.1a6.82,6.82,0,0,1,2.26,1.43l3.19,2.68c.68.57,1.43,1.29,1.37,2.17-.07.72-.62,1.27-.86,1.94-.67,1.92,2.11,3.74,3.85,2.7s1.94-3.73.75-5.38c-1.65-2.28-5.38-3.43-5.28-6.25,1.9-1.55,4.9.08,6,2.28s1.14,4.79,2.08,7.06,3.55,4.3,5.74,3.19c-.57-2-1.13-3.92-1.7-5.87,1.39-1,3,2,4.66,1.49,1-.31,1.14-1.77.7-2.76s-1.22-1.8-1.41-2.87c-.32-1.93,1.84-3.66,3.79-3.34A5,5,0,0,1,259.09,87a8.7,8.7,0,0,0,.51,2.27c.73,1.52,2.61,2,4.17,2.61s3.19,2.21,2.54,3.76c-.31.68-1,1.33-.77,2s1.16.89,1.16,1.56c0,.44-.47.74-.89.92-1,.42-2.18.57-3.2,1.06a2.92,2.92,0,0,0-1.86,2.57c.13,1.58,2,2.34,2.91,3.66s.73,2.92,1.27,4.35a15.56,15.56,0,0,0,2.39,3.47c2.63,3.58,3.25,8.2,4.54,12.45.57,1.92,1.61,4.06,3.58,4.42a6,6,0,0,0,3.17-.62c2.84-1.12,5.79-2.33,7.77-4.63s2.67-6.07.62-8.34a1.63,1.63,0,0,0-1-.62,2.9,2.9,0,0,0-1.49.53,4.24,4.24,0,0,1-4.42-1,12.37,12.37,0,0,1-2.63-3.94l-2.35-4.75a2.77,2.77,0,0,1,3.39.32,18.47,18.47,0,0,1,2.32,2.86c2.36,3,6.25,4.25,10,4.69a9.4,9.4,0,0,1,2.82.59c2.81,1.28,3.61,5.42,6.58,6.31a19.18,19.18,0,0,1,2.52.57,4.65,4.65,0,0,1,2.11,3.14c.65,2.33.87,4.79,1.86,7s2.95,4.23,5.36,4.27a5.74,5.74,0,0,0,4-1.8h0c.13-2.19.21-4.38.21-6.6C316.34,129.69,316.34,129.23,316.31,128.77Z" transform="translate(-10.37 -9.15)"/><path class="cls-5" d="M276,170.4c-1.49.3-1.79,1.18-2.6,2.28-1.06,1.44-2.57,2.88-3.53,4.3-1.63,2.41-.17,6.17-2.31,8.19-.44.42-1,.69-1.39,1.14a2.52,2.52,0,0,0,.51,3.5,3.43,3.43,0,0,0,3.73.07,5.44,5.44,0,0,0,2.29-3.13,5.42,5.42,0,0,1,1.16-2.56c1.23-1.07,3.14-.28,4.75-.5C285.46,182.73,282.51,169.12,276,170.4Z" transform="translate(-10.37 -9.15)"/><g class="cls-9"><path class="cls-7" d="M278.07,150.62c4-3.42,5.56-11.15.64-12.94-1.86-.68-4-.13-5.84-.85-2.41-.93-3.53-3.63-4.4-6.06q-3.44-9.57-6.85-19.14c-1.38-3.85-3.47-8.3-7.51-8.87-2.29-.32-4.51.77-6.79,1.19-7.83,1.42-21-17.53-27-4.77-.83-3.47-6.47-2.17-8.27.91s-2.18,7.16-5,9.3c-2.18,1.63-5.37,1.73-7.15,3.79-1.26,1.44-1.47,3.49-1.63,5.4l-.9,10.94c-.25,2.94-.45,6.08,1,8.65s5.26,4,7.43,2c1-.92,1.43-2.3,2.25-3.38a5.68,5.68,0,0,1,5.85-2,9.84,9.84,0,0,1,4.45,3.14c10.2,11,13.85,26.6,14.3,41.58.08,2.74.08,5.56,1.09,8.11,1.18,3,3.68,5.4,4.41,8.53.56,2.4,0,5,1.06,7.28,1.9,4.13,8.24,4.31,11.69,1.35s4.65-7.73,5.35-12.22,1.15-9.22,3.66-13c1.56-2.35,3.86-4.23,4.95-6.83,1.52-3.63.39-7.94,1.81-11.62C268.57,156.2,274.12,154,278.07,150.62Z" transform="translate(-10.37 -9.15)"/></g><g class="cls-9"><path class="cls-7" d="M154.75,209.32h0c1,.81,2,1.57,3.09,2.31.83.6,1.66,1.18,2.5,1.75s1.7,1.12,2.56,1.66c.6.38,1.21.75,1.82,1.11l-.23-.5c-2.21-4.84-2.34-11.82,2.41-14.21A11.23,11.23,0,0,0,169.6,200c2.11-2,.38-6.13,2.49-8.12,1.19-1.11,3-1,4.52-1.7,2.64-1.22,3.5-4.62,3.3-7.53s-1.18-5.79-.85-8.7c.53-4.39,3.95-8.84,2-12.81-2.21-4.42-8.63-3.71-13.15-5.69-6.31-2.78-8.26-10.61-12.39-16.15-3.69-5-12.32-10.38-18.88-8.89-4.76,1.07-6.4,3.91-6.89,7.4l-.6-.09c-1.76-.19-3.82-.29-4.79-1.75-1.12-1.69,0-4.22-1.17-5.88a9.4,9.4,0,0,0-2.51-1.87c-.85-.61-1.58-1.75-1.06-2.67.43-.77,1.54-.93,2.09-1.65a1.61,1.61,0,0,0,0-2c-1.81-2.14-3.82,2.22-4.82,3.25a9,9,0,0,1-.81.76v0c0,.19,0,.36,0,.55,0,.6,0,1.21,0,1.81s0,1.21,0,1.81,0,1,0,1.47,0,1,0,1.46c0,.24,0,.46,0,.7a100.18,100.18,0,0,0,6.37,31.8,95.65,95.65,0,0,0,6.13,13.13c1,1.82,2.06,3.62,3.18,5.38,1.4,2.17,2.86,4.29,4.43,6.34s3,3.89,4.65,5.73a97.38,97.38,0,0,0,7.08,7.29q3.32,3.09,6.9,5.87" transform="translate(-10.37 -9.15)"/></g><g class="cls-9"><path class="cls-7" d="M122.24,101c1.87-1.6,5.11-1.79,6.55.21,1,1.42.79,3.37.53,5.12-.37,2.35-.73,4.69-1.12,7a3.69,3.69,0,0,0,.1,2.11c.7,1.49,3.14,1.2,4.08-.13s.84-3.15.58-4.77-.58-3.35,0-4.87c1.59-3.77,7.22-3.2,10.48-5.66,2-1.52,2.94-4.08,4.14-6.31s3.22-4.48,5.76-4.36c.86,0,1.7.34,2.55.31,2.51-.08,4-3.74,2.19-5.52A6.29,6.29,0,0,1,157,83a2.08,2.08,0,0,1,.79-2.49,6,6,0,0,1,2.67-.85q3.21-.52,6.42-1c2.36-.36,5.39-1.59,5.06-4-.29-2-3.06-3-3.47-5a6.54,6.54,0,0,0-.27-1.49c-.65-1.31-2.6-.78-3.86-.08a3.1,3.1,0,0,0-4.71-1.51c-1.27,1-1.42,2.89-1.87,4.46-1,3.8-4.07,6.69-7,9.37a5.77,5.77,0,0,1-3.38,1.9c-1.31.06-2.69-1.35-2.09-2.5.41-.8,1.55-1.26,1.44-2.15-.16-1.11-2.09-1-2.47-2.09.76-3.14,4.36-4.44,7.12-6.12a17.26,17.26,0,0,0,7.28-8.94,2.28,2.28,0,0,0,.09-1.84c-.41-.8-1.47-.92-2.38-.92-2.12,0-4.77.25-5.55,2.23-.41,1.06-.11,2.27-.36,3.38-.75,3.3-5.27,3.66-8,5.63a25.51,25.51,0,0,1-3.1,2.41,11.72,11.72,0,0,1-4.22.68l-.76.08q-1.32,1.81-2.53,3.71t-2.34,3.82a98.85,98.85,0,0,0-8.69,19.38q-1.17,3.57-2.06,7.23t-1.51,7.44a28.32,28.32,0,0,0,1.81-6.31C119.61,105.08,120.39,102.57,122.24,101Z" transform="translate(-10.37 -9.15)"/></g><g class="cls-9"><path class="cls-7" d="M206.3,51.62c.95-1.24.67-3,1.29-4.46,1-2.39,4.19-3.24,5.29-5.59.42-.91.53-2,1.27-2.69s1.52-.67,2.18-1.18c1.48-1.13.87-3.7-.7-4.7-3.93-2.51-11.16.39-14.56,2.85-4.37,3.15-8.64,7-14.45,6.59-1.6-.1-3.27-.54-4.77,0s-2.42,2.82-1.13,3.77c.72.53,1.74.38,2.55.76,1.5.69,1.65,2.86.91,4.34s-2,2.59-2.91,4a7.65,7.65,0,0,0-1.08,4.6,4.18,4.18,0,0,0,1.36,2.94c1.81,1.45,4.56.21,6.09-1.52s2.59-4,4.57-5.16A11.59,11.59,0,0,1,195.47,55l7.58-1.8A5.41,5.41,0,0,0,206.3,51.62Z" transform="translate(-10.37 -9.15)"/></g><g class="cls-9"><path class="cls-7" d="M316.31,128.77c0-1.44-.05-2.87-.13-4.3s-.19-2.84-.33-4.25c-.11-1.14-.24-2.27-.4-3.39s-.33-2.37-.53-3.55a95.12,95.12,0,0,0-2.34-10.41c-.37-1.31-.77-2.6-1.19-3.89s-.87-2.56-1.35-3.83v0h0c-.5-.95-1-1.88-1.63-2.8-5.57-8.82-13.65-15.74-19.78-24.17-2-2.75-3.55-5-7.08-5.55-5.24-.81-7.89,2.17-11.6-2.79-1-1.34-2.74-2.57-4.22-1.78.39,1.06.78,2.12,1.16,3.2a1.53,1.53,0,0,1,.13.7c-.08.75-1.19,1-1.82.54a6.32,6.32,0,0,1-1.4-1.79,5.12,5.12,0,0,0-7.53-.62,2.89,2.89,0,0,0-1.67-2.35,3.44,3.44,0,0,1-4.31,2.78c-.3-1,1.42-1.14,2-2s-.11-1.85-.83-2.5a11,11,0,0,0-6.9-2.68c-1.6,0-3.33.26-4.72-.56-.81-.48-1.38-1.27-2.21-1.73-1.76-1-4-.08-5.74.91-2.42,1.34-4.93,3-5.79,5.69s1.05,6.2,3.81,5.87a5.31,5.31,0,0,1,2.11-.24,2.57,2.57,0,0,1,1.51,2.43,7,7,0,0,0,.46,3c.47.89,1.92,1.33,2.47.49,1.3-1.23,1.14-3.31.81-5.07s-.68-3.75.36-5.19,4.08-1,3.87.79c-.12,1-1.31,1.81-1.27,2.88s1.37,1.64,2.45,1.6,2.17-.43,3.22-.16,1.9,1.63,1.14,2.41c-1.32,1.49-4.74-1.06-5.43.79a5.15,5.15,0,0,0,0,1.52c-.13,1.56-2.08,2.13-3.63,2.32a8.68,8.68,0,0,1-4.62-.33c-1.41-.67-2.38-2.52-1.57-3.86a1.77,1.77,0,0,0-2.43.89,5.14,5.14,0,0,0-.17,2.89c-1.65-.37-3.12,1-4.06,2.41s-1.86,3-3.46,3.5-3.84-.17-4.68,1.29c-1.09,1.9,2.08,4.31,1,6.2-.63,1.06-2.16,1-3.36,1.36-3.19.91-4.3,5.57-2.13,8.06s6.52,2.35,8.82,0c1.6-1.64,2.25-3.94,3.41-5.9s3.35-3.73,5.54-3.1a6.82,6.82,0,0,1,2.26,1.43l3.19,2.68c.68.57,1.43,1.29,1.37,2.17-.07.72-.62,1.27-.86,1.94-.67,1.92,2.11,3.74,3.85,2.7s1.94-3.73.75-5.38c-1.65-2.28-5.38-3.43-5.28-6.25,1.9-1.55,4.9.08,6,2.28s1.14,4.79,2.08,7.06,3.55,4.3,5.74,3.19c-.57-2-1.13-3.92-1.7-5.87,1.39-1,3,2,4.66,1.49,1-.31,1.14-1.77.7-2.76s-1.22-1.8-1.41-2.87c-.32-1.93,1.84-3.66,3.79-3.34A5,5,0,0,1,259.09,87a8.7,8.7,0,0,0,.51,2.27c.73,1.52,2.61,2,4.17,2.61s3.19,2.21,2.54,3.76c-.31.68-1,1.33-.77,2s1.16.89,1.16,1.56c0,.44-.47.74-.89.92-1,.42-2.18.57-3.2,1.06a2.92,2.92,0,0,0-1.86,2.57c.13,1.58,2,2.34,2.91,3.66s.73,2.92,1.27,4.35a15.56,15.56,0,0,0,2.39,3.47c2.63,3.58,3.25,8.2,4.54,12.45.57,1.92,1.61,4.06,3.58,4.42a6,6,0,0,0,3.17-.62c2.84-1.12,5.79-2.33,7.77-4.63s2.67-6.07.62-8.34a1.63,1.63,0,0,0-1-.62,2.9,2.9,0,0,0-1.49.53,4.24,4.24,0,0,1-4.42-1,12.37,12.37,0,0,1-2.63-3.94l-2.35-4.75a2.77,2.77,0,0,1,3.39.32,18.47,18.47,0,0,1,2.32,2.86c2.36,3,6.25,4.25,10,4.69a9.4,9.4,0,0,1,2.82.59c2.81,1.28,3.61,5.42,6.58,6.31a19.18,19.18,0,0,1,2.52.57,4.65,4.65,0,0,1,2.11,3.14c.65,2.33.87,4.79,1.86,7s2.95,4.23,5.36,4.27a5.74,5.74,0,0,0,4-1.8h0c.13-2.19.21-4.38.21-6.6C316.34,129.69,316.34,129.23,316.31,128.77Z" transform="translate(-10.37 -9.15)"/></g><g class="cls-9"><path class="cls-7" d="M276,170.4c-1.49.3-1.79,1.18-2.6,2.28-1.06,1.44-2.57,2.88-3.53,4.3-1.63,2.41-.17,6.17-2.31,8.19-.44.42-1,.69-1.39,1.14a2.52,2.52,0,0,0,.51,3.5,3.43,3.43,0,0,0,3.73.07,5.44,5.44,0,0,0,2.29-3.13,5.42,5.42,0,0,1,1.16-2.56c1.23-1.07,3.14-.28,4.75-.5C285.46,182.73,282.51,169.12,276,170.4Z" transform="translate(-10.37 -9.15)"/></g><path class="cls-5" d="M149.26,55.54s.79-.57,2.39-1.53a53.19,53.19,0,0,1,7.28-3.6,60.33,60.33,0,0,1,12.37-3.49,65.15,65.15,0,0,1,8-.91c1.42-.11,2.89-.16,4.39-.18s3,0,4.62,0a89.22,89.22,0,0,1,20.41,3,75.61,75.61,0,0,1,21.6,9.61,63.67,63.67,0,0,1,18.51,18.36,60.11,60.11,0,0,1,9.7,26.21,53,53,0,0,1-.21,13.53l-.42-.24a40,40,0,0,1,11.43-6.4,42.38,42.38,0,0,1,12.46-2.37,38.46,38.46,0,0,1,22.7,6.28,41,41,0,0,1,14,16,38.24,38.24,0,0,1,4,18,40.56,40.56,0,0,1-9.34,24.58,37.43,37.43,0,0,1-5.11,5.1l-1.49,1.13c-.34.26-.52.38-.52.38s.16-.15.49-.42l1.46-1.16a40.7,40.7,0,0,0,14.16-29.62,38,38,0,0,0-4-17.83,40.77,40.77,0,0,0-13.93-15.78,38.07,38.07,0,0,0-22.43-6.17,42,42,0,0,0-12.31,2.35,39.76,39.76,0,0,0-11.27,6.32l-.52.41.1-.65a52.42,52.42,0,0,0,.2-13.39,59.78,59.78,0,0,0-9.6-26A63.46,63.46,0,0,0,230,58.9a75.69,75.69,0,0,0-21.46-9.6,89.44,89.44,0,0,0-20.3-3.07c-1.57,0-3.11-.11-4.61,0s-2.95,0-4.36.16a69.08,69.08,0,0,0-8,.86A60.91,60.91,0,0,0,159,50.6a55.42,55.42,0,0,0-7.3,3.51c-.81.45-1.41.83-1.81,1.07S149.26,55.54,149.26,55.54Z" transform="translate(-10.37 -9.15)"/><path class="cls-5" d="M260.35,114.47a4.59,4.59,0,0,0-1.46-1.71c-1.56-1.4-3.56-1.21-4.37-.18a4.23,4.23,0,0,0-.31,4.19,4.59,4.59,0,0,0,2.81,2.69,3.19,3.19,0,0,0,3.55-1.2A3.66,3.66,0,0,0,260.35,114.47Z" transform="translate(-10.37 -9.15)"/><path class="cls-5" d="M235.4,53.31c.37-1.88-2.35-3.86-4.66-4.87,0,0-1.52-.75-2.16-1h0L225.86,43a2.13,2.13,0,0,0-.93-.83l-.44-.2a.28.28,0,0,0-.39.33l1.08,4,0,0-4.28-1.43-.07,0a3.38,3.38,0,0,1-1.86-1.59l-1-1.81a.66.66,0,0,0-.21-.23.51.51,0,0,0-.76.43l-.09,3.05a1.25,1.25,0,0,0,.68,1.14l1.07.55,5.51,2.72L221.3,50.6a.21.21,0,0,0-.06.32l.17.2a1,1,0,0,0,.94.35l4.74-.89,6.49,3.21C234.44,54.22,235.22,54,235.4,53.31Z" transform="translate(-10.37 -9.15)"/><path class="cls-5" d="M152.31,46.18a3.88,3.88,0,0,0-3.21-1.63,4.21,4.21,0,0,0-3.89,2.69,4.36,4.36,0,0,0,.15,3,5.12,5.12,0,0,0,.56,1.05c.77,1.11,3.18,4.17,3.18,4.17h.53c.67-.94,2.36-4,2.87-5A4.2,4.2,0,0,0,152.31,46.18Zm-2.71,5a2.57,2.57,0,1,1,2.56-2.57A2.57,2.57,0,0,1,149.6,51.15Z" transform="translate(-10.37 -9.15)"/><g class="cls-10"><path d="M152.31,46.18a3.88,3.88,0,0,0-3.21-1.63,4.21,4.21,0,0,0-3.89,2.69,4.36,4.36,0,0,0,.15,3,5.12,5.12,0,0,0,.56,1.05c.77,1.11,3.18,4.17,3.18,4.17h.53c.67-.94,2.36-4,2.87-5A4.2,4.2,0,0,0,152.31,46.18Zm-2.71,5a2.57,2.57,0,1,1,2.56-2.57A2.57,2.57,0,0,1,149.6,51.15Z" transform="translate(-10.37 -9.15)"/></g><path class="cls-5" d="M152.83,46.2a3.86,3.86,0,0,0-3.2-1.63,4.21,4.21,0,0,0-3.89,2.69,4.36,4.36,0,0,0,.14,3,5.66,5.66,0,0,0,.56,1c.78,1.11,3.19,4.17,3.19,4.17s2.78-3.83,3.4-5A4.2,4.2,0,0,0,152.83,46.2Zm-3.23,5A2.55,2.55,0,0,1,147,48.61a2.57,2.57,0,1,1,2.56,2.56Z" transform="translate(-10.37 -9.15)"/><path class="cls-5" d="M149.6,46a2.55,2.55,0,0,0-2.41,1.71,2.19,2.19,0,1,1,2,3.1,2.16,2.16,0,0,1-1.73-.85,2.56,2.56,0,1,0,2.14-4Z" transform="translate(-10.37 -9.15)"/><g class="cls-10"><path d="M149.6,46a2.55,2.55,0,0,0-2.41,1.71,2.19,2.19,0,1,1,2,3.1,2.16,2.16,0,0,1-1.73-.85,2.56,2.56,0,1,0,2.14-4Z" transform="translate(-10.37 -9.15)"/></g></g><g id="Character"><path class="cls-5" d="M173.58,396.25l-.41.42-7.88,8-9.12,4.72,8.57,23.07L177.12,434s-.52-3.09-6.29-5.37l1.08-11.94,12.16-10.43" transform="translate(-10.37 -9.15)"/><g class="cls-9"><polygon class="cls-7" points="145.81 400.26 154.37 423.32 166.76 424.87 165.59 422.84 155.59 421.02 147.75 399.25 145.81 400.26"/></g><path class="cls-8" d="M171.43,423.19c-.11.12-.77-.38-1.73-.47s-1.72.22-1.8.08.69-.76,1.86-.63S171.56,423.11,171.43,423.19Z" transform="translate(-10.37 -9.15)"/><path class="cls-8" d="M171.6,420.22c-.14.07-.6-.73-1.56-1.05s-1.81,0-1.88-.1.14-.25.51-.39a2.31,2.31,0,0,1,2.76.92C171.64,419.94,171.66,420.19,171.6,420.22Z" transform="translate(-10.37 -9.15)"/><path class="cls-8" d="M172.15,416.44c-.14.05-.48-.72-1.3-1.13s-1.64-.22-1.68-.36.15-.22.51-.31a2.1,2.1,0,0,1,1.41.18,2.21,2.21,0,0,1,1,1C172.23,416.18,172.22,416.42,172.15,416.44Z" transform="translate(-10.37 -9.15)"/><path class="cls-8" d="M175.83,413.91c-.15,0-.41-.71-1.12-1.31s-1.47-.76-1.46-.92,1-.24,1.82.51S176,413.91,175.83,413.91Z" transform="translate(-10.37 -9.15)"/><path class="cls-8" d="M177.76,411.57a5.9,5.9,0,0,1-.92-1.43c-.28-.53-.56-1.07-.86-1.62a4.15,4.15,0,0,1-.45-1.07,1.1,1.1,0,0,1,.17-.75.78.78,0,0,1,.8-.29,2.26,2.26,0,0,1,1.08.74,4.72,4.72,0,0,1,.65,1,4.2,4.2,0,0,1,.42,1.87,2.31,2.31,0,0,1-.49,1.66,13.21,13.21,0,0,0,.11-1.64,4.52,4.52,0,0,0-.49-1.65,3.87,3.87,0,0,0-.59-.82,2.06,2.06,0,0,0-.8-.58.23.23,0,0,0-.25.09.47.47,0,0,0-.07.34,3.82,3.82,0,0,0,.37.93l.75,1.67A5.12,5.12,0,0,1,177.76,411.57Z" transform="translate(-10.37 -9.15)"/><path class="cls-8" d="M178.16,412c-.06,0,.07-.65.84-1.31a3.11,3.11,0,0,1,3.75-.21.59.59,0,0,1,.14.47.69.69,0,0,1-.2.37,2.08,2.08,0,0,1-.49.34,6.7,6.7,0,0,1-.94.39,5.45,5.45,0,0,1-1.69.25,2.66,2.66,0,0,1-1.51-.33,13.25,13.25,0,0,1,1.5-.06,6.25,6.25,0,0,0,1.54-.34,5.26,5.26,0,0,0,.84-.39,1.25,1.25,0,0,0,.35-.24c.08-.1.06-.07,0-.1a.85.85,0,0,0-.34-.18,2.54,2.54,0,0,0-.45-.13,3.35,3.35,0,0,0-.89,0,3.12,3.12,0,0,0-1.42.52C178.5,411.49,178.24,412,178.16,412Z" transform="translate(-10.37 -9.15)"/><g class="cls-9"><path class="cls-7" d="M166.1,410.26a1.48,1.48,0,1,1-1.28-1.65A1.48,1.48,0,0,1,166.1,410.26Z" transform="translate(-10.37 -9.15)"/></g><path class="cls-5" d="M253.33,408.75l7.15,25L291.57,425c-1-2.92-18.77-4.36-18.77-4.36l-3.93-16.18Z" transform="translate(-10.37 -9.15)"/><g class="cls-9"><path class="cls-7" d="M262.8,422a1.33,1.33,0,0,0-.47,1.7,1.27,1.27,0,0,0,1.68.48,1.4,1.4,0,0,0,.49-1.8,1.32,1.32,0,0,0-1.8-.31" transform="translate(-10.37 -9.15)"/></g><g class="cls-9"><path class="cls-7" d="M260.48,433.71l-.62-2.55,30-7.42s1.56.21,1.67,1.23Z" transform="translate(-10.37 -9.15)"/></g><path class="cls-8" d="M273.26,420.31c0,.15-.71.43-1.32,1.13s-.83,1.45-1,1.43-.18-1,.57-1.8S273.25,420.16,273.26,420.31Z" transform="translate(-10.37 -9.15)"/><path class="cls-8" d="M276.9,420.74c.07.14-.51.58-.85,1.37s-.29,1.51-.44,1.54-.5-.79-.06-1.76S276.85,420.6,276.9,420.74Z" transform="translate(-10.37 -9.15)"/><path class="cls-8" d="M279.84,424.12c-.12.08-.55-.62-.39-1.56s.77-1.48.87-1.37-.21.68-.33,1.45S280,424.07,279.84,424.12Z" transform="translate(-10.37 -9.15)"/><path class="cls-8" d="M272,416.72c0,.16-.78.14-1.62.44s-1.43.76-1.55.65.38-.83,1.37-1.17S272,416.58,272,416.72Z" transform="translate(-10.37 -9.15)"/><path class="cls-8" d="M270.18,413.24a3.15,3.15,0,0,1-1.56.43,7.65,7.65,0,0,1-1.77,0,8.36,8.36,0,0,1-1-.23,2,2,0,0,1-.57-.23.68.68,0,0,1-.3-.79.83.83,0,0,1,.57-.53,1.94,1.94,0,0,1,.6-.09,6.23,6.23,0,0,1,1.07.06,6,6,0,0,1,1.7.54c.91.47,1.31,1,1.27,1s-.54-.31-1.43-.65a6.53,6.53,0,0,0-1.61-.4,6.23,6.23,0,0,0-1,0c-.35,0-.64.08-.68.25s0,.09.08.17a1.66,1.66,0,0,0,.42.17,8.59,8.59,0,0,0,2.63.39A11.88,11.88,0,0,1,270.18,413.24Z" transform="translate(-10.37 -9.15)"/><path class="cls-8" d="M270,413.51c-.05,0-.5-.42-.83-1.39a5.09,5.09,0,0,1-.27-1.76,5.68,5.68,0,0,1,.13-1.06,1.33,1.33,0,0,1,.77-1.06.77.77,0,0,1,.78.25,2.29,2.29,0,0,1,.32.52,3.52,3.52,0,0,1,.29,1.05,3.78,3.78,0,0,1-.21,1.8c-.38,1-1,1.33-1,1.29s.37-.51.62-1.41a3.8,3.8,0,0,0,.08-1.6,3.46,3.46,0,0,0-.28-.9c-.14-.31-.34-.54-.45-.48s-.35.37-.41.67a5.32,5.32,0,0,0-.14.95,5.57,5.57,0,0,0,.13,1.64C269.79,412.94,270.12,413.47,270,413.51Z" transform="translate(-10.37 -9.15)"/><path class="cls-8" d="M251.81,243.44c.92,1.85,15.8,98.63,15.8,98.63l11.14,65.14-25.14,6.49L239,348.58l-11.35-62.95-5-34.7Z" transform="translate(-10.37 -9.15)"/><path class="cls-8" d="M241.31,259.45l-.95,72.74a43.46,43.46,0,0,1-10.88,29.43L184.65,411,164.28,390.8,208.58,336l-4.84-70.58Z" transform="translate(-10.37 -9.15)"/><path class="cls-11" d="M240,265.7a1.3,1.3,0,0,1,0,.31l0,.91q0,1.26.12,3.51c.08,3,.15,7.44.19,12.88.11,10.87-.06,25.9.22,42.49,0,4.14.27,8.19.1,12.12a41.44,41.44,0,0,1-.62,5.76,17.36,17.36,0,0,1-.75,2.74,25.8,25.8,0,0,1-1.2,2.48,69.23,69.23,0,0,1-5.73,8.48c-2,2.53-3.88,4.81-5.64,6.89-3.54,4.13-6.5,7.39-8.52,9.66l-2.32,2.62-.6.68a2.69,2.69,0,0,1-.22.23s0-.1.17-.26l.57-.72c.5-.62,1.25-1.53,2.25-2.68,2-2.32,4.89-5.61,8.39-9.77,1.74-2.09,3.63-4.38,5.57-6.92a68.47,68.47,0,0,0,5.66-8.44c1.92-3.07,2.28-6.89,2.48-10.77s-.06-7.94-.11-12.09c-.28-16.6-.05-31.63-.07-42.5,0-5.41,0-9.8,0-12.88,0-1.49,0-2.67,0-3.5,0-.38,0-.68,0-.91A1.14,1.14,0,0,1,240,265.7Z" transform="translate(-10.37 -9.15)"/><path class="cls-11" d="M215.29,329.71a32.6,32.6,0,0,1-3.95,4.25,32.61,32.61,0,0,1-4.33,3.88,31.58,31.58,0,0,1,4-4.25A32.78,32.78,0,0,1,215.29,329.71Z" transform="translate(-10.37 -9.15)"/><path class="cls-5" d="M245.69,182.24l15.11,28.43,34.95-6,4.39,18.31-40.77,10.61a10.91,10.91,0,0,1-5.78.21h0a10.94,10.94,0,0,1-7.89-7.22l-14.88-38.67c-1.36-3.53-4.18-10.77-1.4-13.32l-2.77-2.9C231.25,167.42,242.76,175.5,245.69,182.24Z" transform="translate(-10.37 -9.15)"/><path class="cls-8" d="M258.16,222.68a4.56,4.56,0,0,1-.74-1.81,10.7,10.7,0,0,1,2-9,4.41,4.41,0,0,1,1.43-1.33c.06.06-.47.58-1.13,1.55a12,12,0,0,0-1.91,8.69A18.43,18.43,0,0,1,258.16,222.68Z" transform="translate(-10.37 -9.15)"/><path class="cls-5" d="M255.58,254.22c2.67-1.69,6.4-.58,8.58,1.71s3.16,5.45,3.93,8.51a107.73,107.73,0,0,1,2.7,15.56,13.22,13.22,0,0,1-.29,5.5,7.55,7.55,0,0,1-5.65,4.83,8.64,8.64,0,0,1-7.24-2.05c-3.45-3-4.09-8.1-4.52-12.69L251.2,255" transform="translate(-10.37 -9.15)"/><g class="cls-10"><path d="M255.58,254.22c2.67-1.69,6.4-.58,8.58,1.71s3.16,5.45,3.93,8.51a107.73,107.73,0,0,1,2.7,15.56,13.22,13.22,0,0,1-.29,5.5,7.55,7.55,0,0,1-5.65,4.83,8.64,8.64,0,0,1-7.24-2.05c-3.45-3-4.09-8.1-4.52-12.69L251.2,255" transform="translate(-10.37 -9.15)"/></g><path class="cls-8" d="M266.14,290.13s-.63.23-1.45-.46a3.12,3.12,0,0,1-.92-1.58c-.2-.69-.33-1.47-.51-2.33-.68-3.45-1.6-8.22-2.57-13.49s-1.84-10.06-2.43-13.53c-.28-1.66-.5-3-.68-4.1a9.4,9.4,0,0,1-.18-1.52,7.83,7.83,0,0,1,.38,1.48c.22,1.05.5,2.43.84,4.08.69,3.45,1.6,8.22,2.58,13.49s1.83,10.06,2.42,13.52c.16.87.26,1.66.43,2.32a3.08,3.08,0,0,0,.78,1.51A2.09,2.09,0,0,0,266.14,290.13Z" transform="translate(-10.37 -9.15)"/><path class="cls-8" d="M265.7,288.42c.07.13-.24.41-.72.48s-.86-.11-.83-.25.36-.21.75-.27S265.64,288.29,265.7,288.42Z" transform="translate(-10.37 -9.15)"/><path class="cls-8" d="M268.59,266.26a13.43,13.43,0,0,1-4.06,1.39,13.26,13.26,0,0,1-4.26.52,29.06,29.06,0,0,1,4.14-1A26.13,26.13,0,0,1,268.59,266.26Z" transform="translate(-10.37 -9.15)"/><path class="cls-8" d="M270.73,276.28a12.63,12.63,0,0,1-4.13,1.33,12.49,12.49,0,0,1-4.34.27,33.17,33.17,0,0,1,4.24-.78A32.9,32.9,0,0,1,270.73,276.28Z" transform="translate(-10.37 -9.15)"/><polygon class="cls-8" points="248.28 244.26 229.3 164.81 228.14 164.12 232.96 192.55 244.76 245.69 248.28 244.26"/><path class="cls-5" d="M203,175.84a36.84,36.84,0,0,0-20.91,1.49c-3,1.12-5.92,2.75-7.6,5.44-2,3.19-1.8,7.2-1.72,11a129,129,0,0,1-1.55,22.81c-1,6.27-2.44,12.51-2.63,18.86s1,13,4.83,18.06c5.89,7.83,16.75,10.32,26.5,9.35A31.22,31.22,0,0,0,214.44,258c4.26-2.9,7.55-7.49,8.07-12.62" transform="translate(-10.37 -9.15)"/><g class="cls-12"><path d="M203,175.84a36.84,36.84,0,0,0-20.91,1.49c-3,1.12-5.92,2.75-7.6,5.44-2,3.19-1.8,7.2-1.72,11a129,129,0,0,1-1.55,22.81c-1,6.27-2.44,12.51-2.63,18.86s1,13,4.83,18.06c5.89,7.83,16.75,10.32,26.5,9.35A31.22,31.22,0,0,0,214.44,258c4.26-2.9,7.55-7.49,8.07-12.62" transform="translate(-10.37 -9.15)"/></g><path class="cls-2" d="M190.51,185.1a16.71,16.71,0,0,0-2.41,3.44,30.57,30.57,0,0,0-1.71,4.26,42.81,42.81,0,0,1-2,5.32,12,12,0,0,1-3.54,4.49A6.88,6.88,0,0,1,176.4,204a5.4,5.4,0,0,1-3-1,3.53,3.53,0,0,1-.64-.58c-.13-.15-.19-.23-.17-.25s.31.28.92.66a5.62,5.62,0,0,0,2.9.78,6.73,6.73,0,0,0,4.15-1.44,12,12,0,0,0,3.37-4.34,49.82,49.82,0,0,0,2-5.25,27.32,27.32,0,0,1,1.83-4.27,11.82,11.82,0,0,1,1.86-2.54A3.17,3.17,0,0,1,190.51,185.1Z" transform="translate(-10.37 -9.15)"/><path class="cls-2" d="M185.2,261.84a2.36,2.36,0,0,1-.1-.63q-.07-.69-.18-1.8c-.15-1.56-.33-3.83-.53-6.63-.41-5.6-.87-13.35-1.2-21.91s-.45-16.33-.46-22c0-2.8,0-5.08,0-6.65,0-.74,0-1.34,0-1.81a2.42,2.42,0,0,1,0-.63,3.15,3.15,0,0,1,.05.63c0,.47,0,1.07.06,1.81,0,1.64.08,3.89.13,6.65.11,5.61.3,13.37.62,21.93s.73,16.3,1,21.91c.16,2.75.28,5,.37,6.64l.08,1.8A3.46,3.46,0,0,1,185.2,261.84Z" transform="translate(-10.37 -9.15)"/><path class="cls-2" d="M183.22,227.52a32.24,32.24,0,0,1-6.87.43,31.84,31.84,0,0,1-6.87-.53c0-.15,3.08,0,6.87,0S183.21,227.37,183.22,227.52Z" transform="translate(-10.37 -9.15)"/><path class="cls-2" d="M180.73,227.73a3.77,3.77,0,0,1,.58,1.41,12.22,12.22,0,0,1,.36,1.63,2.33,2.33,0,0,1,0,1.07,1.2,1.2,0,0,1-1,.82.87.87,0,0,1-.69-.23,1.09,1.09,0,0,1-.3-.58,3.3,3.3,0,0,1,0-1,9.53,9.53,0,0,1,.37-1.62c.29-.91.6-1.41.66-1.38a7.09,7.09,0,0,1-.31,1.47,13.87,13.87,0,0,0-.24,1.59,2.88,2.88,0,0,0,0,.88c.05.27.21.42.43.4.54-.08.69-.74.6-1.31s-.16-1.15-.24-1.6A5.42,5.42,0,0,1,180.73,227.73Z" transform="translate(-10.37 -9.15)"/><rect class="cls-11" x="159.19" y="147.29" width="48.13" height="21.54" rx="9.59" ry="9.59"/><path class="cls-8" d="M177.88,156.89s.09-.08.3-.17a3.87,3.87,0,0,1,.93-.26,5.43,5.43,0,0,1,3.43.76,10,10,0,0,1,3.78,3.6A13.17,13.17,0,0,1,188,167a11,11,0,0,1-1.47,6.21,8.8,8.8,0,0,1-3.85,3.52,8,8,0,0,1-3.44.79,5.23,5.23,0,0,1-1-.08q-.33-.06-.33-.09s.47,0,1.28,0a8.56,8.56,0,0,0,3.27-.92,8.76,8.76,0,0,0,3.61-3.43,10.67,10.67,0,0,0,1.36-5.95,13,13,0,0,0-1.54-6,9.86,9.86,0,0,0-3.56-3.52,5.41,5.41,0,0,0-3.22-.87A8.69,8.69,0,0,0,177.88,156.89Z" transform="translate(-10.37 -9.15)"/><path class="cls-8" d="M196.48,156.36l-5,.09a5.77,5.77,0,0,1,3.47,2.08,9.92,9.92,0,0,1,1.82,3.68A15.66,15.66,0,0,1,191.46,178l4.06.07s10.26-11.58,1-21.69" transform="translate(-10.37 -9.15)"/><path class="cls-5" d="M199.6,265.62c-.76-6.74-1-32.93-1-32.93-.95-12.21-1.42-25.52-2.14-34.39-.68-8.35-4-17.59,0-20.05,14.11-8.82,18.81-8.48,18.81-8.48l7.57.1c9,.68,15.7,6.78,17,15.12l17,77.77Z" transform="translate(-10.37 -9.15)"/><path class="cls-13" d="M182.89,254.39" transform="translate(-10.37 -9.15)"/><path class="cls-8" d="M253.61,245.82a2.7,2.7,0,0,1-.19-.55c-.11-.43-.26-1-.44-1.61-.37-1.41-.89-3.44-1.51-6-1.25-5-2.89-12-4.6-19.74s-3.17-14.75-4.19-19.84c-.49-2.49-.88-4.54-1.17-6-.12-.67-.22-1.21-.29-1.65a2.45,2.45,0,0,1-.07-.58,2.18,2.18,0,0,1,.17.56c.1.43.23,1,.39,1.63l1.33,6c1.12,5.12,2.65,12.09,4.34,19.79s3.29,14.65,4.44,19.78l1.36,6c.14.66.25,1.2.34,1.63A2.14,2.14,0,0,1,253.61,245.82Z" transform="translate(-10.37 -9.15)"/><path class="cls-8" d="M206.81,141.45a3.17,3.17,0,0,1-2.09,2.9,27.12,27.12,0,0,1-3.7,1,4.14,4.14,0,0,0-2.94,2.2,2.58,2.58,0,0,0,3.23,3.37,3.1,3.1,0,1,0,3.77,4.86c-1.52,2-.6,5.16,1.56,6.4a6.28,6.28,0,0,0,7-.91,10.31,10.31,0,0,0,3.28-6.52,30.39,30.39,0,0,0-.16-7.44" transform="translate(-10.37 -9.15)"/><path class="cls-8" d="M231.38,163.59a3.49,3.49,0,0,0,6.12-2.33,4,4,0,0,0,5-6.1,2.19,2.19,0,0,0,2.93-1.17,3.87,3.87,0,0,0-.46-3.4c-.62-1-5.47-3.21-5.47-6.53,0-7.33-1-6.68-1.42-12.38" transform="translate(-10.37 -9.15)"/><path class="cls-14" d="M208,138.16l2.36,33.5a10.45,10.45,0,0,0,10.42,9.71h0a10.45,10.45,0,0,0,10.43-11.13c-.21-3.19-.4-5.8-.4-5.8s8.11-1.26,8.21-9.37c.06-4.68-.75-15.31-1.44-23.45a10.63,10.63,0,0,0-10.6-9.73h-4.9A15,15,0,0,0,208,138.16Z" transform="translate(-10.37 -9.15)"/><path class="cls-15" d="M230.8,164.32a18.84,18.84,0,0,1-10.57-3s2.5,5.84,10.59,5.11Z" transform="translate(-10.37 -9.15)"/><path class="cls-8" d="M235.73,142a1.15,1.15,0,0,1-1.12,1.16,1.1,1.1,0,0,1-1.19-1,1.17,1.17,0,0,1,1.12-1.17A1.11,1.11,0,0,1,235.73,142Z" transform="translate(-10.37 -9.15)"/><path class="cls-8" d="M236.16,139.75c-.15.15-1-.5-2.27-.5s-2.16.63-2.29.48.08-.34.47-.63a3.21,3.21,0,0,1,1.84-.57,3.06,3.06,0,0,1,1.81.58C236.1,139.41,236.23,139.68,236.16,139.75Z" transform="translate(-10.37 -9.15)"/><path class="cls-8" d="M224,142a1.15,1.15,0,0,1-1.12,1.16,1.1,1.1,0,0,1-1.19-1,1.17,1.17,0,0,1,1.12-1.17A1.11,1.11,0,0,1,224,142Z" transform="translate(-10.37 -9.15)"/><path class="cls-8" d="M223.91,140c-.15.15-1-.5-2.27-.49s-2.16.62-2.29.47.07-.34.47-.63a3.24,3.24,0,0,1,1.84-.57,3.06,3.06,0,0,1,1.81.59C223.85,139.64,224,139.91,223.91,140Z" transform="translate(-10.37 -9.15)"/><path class="cls-8" d="M228.43,149.22a8.57,8.57,0,0,1,2-.36c.31,0,.61-.1.67-.32a1.68,1.68,0,0,0-.21-.94l-.95-2.42a42.25,42.25,0,0,1-2.11-6.34,41.92,41.92,0,0,1,2.62,6.15c.31.85.62,1.66.9,2.44a1.86,1.86,0,0,1,.17,1.25.78.78,0,0,1-.53.46,1.86,1.86,0,0,1-.54.08A8,8,0,0,1,228.43,149.22Z" transform="translate(-10.37 -9.15)"/><path class="cls-8" d="M224.76,150.08c.21,0,.21,1.35,1.37,2.31s2.59.81,2.6,1-.32.26-.92.27a3.35,3.35,0,0,1-2.18-.75,3,3,0,0,1-1.06-1.93C224.52,150.41,224.67,150.08,224.76,150.08Z" transform="translate(-10.37 -9.15)"/><path class="cls-8" d="M224.23,135.1c-.12.34-1.37.17-2.83.35s-2.64.58-2.84.27c-.08-.14.12-.46.6-.79a4.7,4.7,0,0,1,2.1-.74,5,5,0,0,1,2.22.26C224,134.67,224.28,134.94,224.23,135.1Z" transform="translate(-10.37 -9.15)"/><path class="cls-8" d="M235.7,136.14c-.22.28-1.08,0-2.11,0s-1.91.19-2.11-.11c-.09-.14.05-.43.43-.69a2.93,2.93,0,0,1,1.72-.47,2.89,2.89,0,0,1,1.68.57C235.68,135.71,235.8,136,235.7,136.14Z" transform="translate(-10.37 -9.15)"/><path class="cls-14" d="M210.71,144.24c-.14-.06-5.57-1.64-5.39,3.9s5.7,4.22,5.71,4.06S210.71,144.24,210.71,144.24Z" transform="translate(-10.37 -9.15)"/><path class="cls-15" d="M209.27,150.16s-.1.07-.26.15a1,1,0,0,1-.72,0,2.4,2.4,0,0,1-1.17-2.11,3.26,3.26,0,0,1,.22-1.39,1.11,1.11,0,0,1,.71-.77.47.47,0,0,1,.57.25c.08.15,0,.26.08.27s.12-.1.07-.32a.65.65,0,0,0-.23-.34.71.71,0,0,0-.54-.13,1.34,1.34,0,0,0-1,.89,3.3,3.3,0,0,0-.29,1.56,2.51,2.51,0,0,0,1.49,2.35,1,1,0,0,0,.88-.18C209.26,150.29,209.29,150.17,209.27,150.16Z" transform="translate(-10.37 -9.15)"/><path class="cls-8" d="M207.63,144.06a2.91,2.91,0,0,1,2.67,1.36c.36.8.44,1.69.8,2.48a2,2,0,0,0,2,1.31,1.69,1.69,0,0,0,1.15-1.26,4.89,4.89,0,0,0,0-1.79c-.33-2.59-.87-5.16-1-7.76a13.35,13.35,0,0,1,1.64-7.54,7.29,7.29,0,0,1,6.48-3.65c1.73.14,3.31,1,5,1.28a6.79,6.79,0,0,0,5.63-1.88,11.33,11.33,0,0,1,1-.76,3.17,3.17,0,0,0-.59-1.71c-3.39-3.14-9.51-4-14-2.89a16.21,16.21,0,0,0-10.62,8.5c-1.93,4.2-1.36,10.05-.29,14.31" transform="translate(-10.37 -9.15)"/><path class="cls-5" d="M237.65,130.36s-21.28-6.84-30.48,11.57a34.47,34.47,0,0,1-1.38-7.08c0-1.65,1-11.47,11.09-14.56C216.88,120.29,232.11,114.48,237.65,130.36Z" transform="translate(-10.37 -9.15)"/><path class="cls-8" d="M219.37,130.82a4.61,4.61,0,0,0,7.36.67,2.73,2.73,0,0,0,5.16-.27,6.11,6.11,0,0,0,2.07,1.51,2.09,2.09,0,0,0,2.36-.49,2.06,2.06,0,0,0-.14-2.44,5,5,0,0,0-2.16-1.45,15.52,15.52,0,0,0-8-1.22,10.85,10.85,0,0,0-7,3.83" transform="translate(-10.37 -9.15)"/><g class="cls-10"><path d="M237.65,130.36a9.91,9.91,0,0,0-6.77-3.07c-6.27-.28-18,3.25-23.71,14.64a34.47,34.47,0,0,1-1.38-7.08c0-1.65,1-11.47,11.09-14.56C216.88,120.29,232.11,114.48,237.65,130.36Z" transform="translate(-10.37 -9.15)"/></g><path class="cls-5" d="M208.06,139.77a39.89,39.89,0,0,1,12.39-11.87c4.89-3.06,13-6.08,18.55-7.56a12.09,12.09,0,0,1,5.12-.53,4.61,4.61,0,0,1,3.8,3.1c.53,2.11-3.2,5.35-4.95,6.62a56.62,56.62,0,0,1-5.32,3.15s0-3.9-6.19-4.7C223,126.88,208.06,139.77,208.06,139.77Z" transform="translate(-10.37 -9.15)"/><path class="cls-14" d="M266.5,234.73s17.73-.46,21.93-8.76l-23.25.76Z" transform="translate(-10.37 -9.15)"/><path class="cls-11" d="M239,174.36c0,83.71-39.56,89.41-39.56,89.41l-.24-4.17c39.62-15.14,35.36-88,35.36-88S239,172.33,239,174.36Z" transform="translate(-10.37 -9.15)"/><path class="cls-8" d="M190.61,261.44h13.94a0,0,0,0,1,0,0v16.94a0,0,0,0,1,0,0H190.61a4.1,4.1,0,0,1-4.1-4.1v-8.73A4.1,4.1,0,0,1,190.61,261.44Z" transform="translate(-119.12 124.78) rotate(-30)"/><rect class="cls-8" x="181.42" y="273.19" width="8.81" height="7.13" transform="translate(-131.28 137.08) rotate(-33.07)"/><path class="cls-8" d="M179.15,274h5.09a1.86,1.86,0,0,1,1.86,1.86v5.91a1.86,1.86,0,0,1-1.86,1.86h-5.09a0,0,0,0,1,0,0V274A0,0,0,0,1,179.15,274Z" transform="translate(-132.93 135.66) rotate(-33.07)"/><path class="cls-8" d="M187.15,265l-.22-.28a2.15,2.15,0,0,1,.67-3.21l3.5-1.9a1.22,1.22,0,0,1,1.54.33l1,1.3Z" transform="translate(-10.37 -9.15)"/><rect class="cls-8" x="178.95" y="275.68" width="1.09" height="10.29" transform="translate(-134.52 134.28) rotate(-33.07)"/><path class="cls-11" d="M182.64,284.61a5.5,5.5,0,0,1-.94-1.1c-.54-.72-1.26-1.73-2-2.88s-1.36-2.22-1.79-3a6.77,6.77,0,0,1-.63-1.32,7.69,7.69,0,0,1,.82,1.21l1.87,2.94,1.92,2.92A8.62,8.62,0,0,1,182.64,284.61Z" transform="translate(-10.37 -9.15)"/><path class="cls-11" d="M187.53,280.12c-.08,0-.73-1.47-1.8-3.17s-2.16-2.94-2.09-3a10.89,10.89,0,0,1,2.35,2.84A10.57,10.57,0,0,1,187.53,280.12Z" transform="translate(-10.37 -9.15)"/><path class="cls-11" d="M190.52,272.15a15,15,0,0,1-2.56,1.78,14.73,14.73,0,0,1-2.72,1.5,15.8,15.8,0,0,1,2.56-1.77A16.43,16.43,0,0,1,190.52,272.15Z" transform="translate(-10.37 -9.15)"/><path class="cls-11" d="M191.64,273.62a33.54,33.54,0,0,1-5.57,3.38,16.9,16.9,0,0,1,2.71-1.82A17.45,17.45,0,0,1,191.64,273.62Z" transform="translate(-10.37 -9.15)"/><path class="cls-11" d="M191.81,275.94a14.09,14.09,0,0,1-2.34,1.59,12.24,12.24,0,0,1-2.5,1.31,13.23,13.23,0,0,1,2.34-1.58A12.33,12.33,0,0,1,191.81,275.94Z" transform="translate(-10.37 -9.15)"/><path class="cls-11" d="M191,277.9a7.67,7.67,0,0,0,.73-1.33,3.68,3.68,0,0,0-3.47-5,6.93,6.93,0,0,0-1.5.21,1,1,0,0,1,.37-.2,3.22,3.22,0,0,1,1.13-.23,3.78,3.78,0,0,1,3.67,5.32,3.32,3.32,0,0,1-.61,1C191.1,277.83,191,277.91,191,277.9Z" transform="translate(-10.37 -9.15)"/><path class="cls-16" d="M187.53,262.44a11,11,0,0,0,.63,1.33l3.65-2.13-.66-1.21Z" transform="translate(-10.37 -9.15)"/><path class="cls-11" d="M188.15,263.79v0a8.51,8.51,0,0,1-.62-1.34h0l3.63-2h0l.67,1.23h0Zm-.6-1.34a10,10,0,0,0,.61,1.3l3.63-2.11-.64-1.19Z" transform="translate(-10.37 -9.15)"/><path class="cls-11" d="M201.48,276.49s-.22.25-.75.15-1.06-.7-1.48-1.45l-3.52-5.88c-.36-.57-.64-1.17-1-1.65a1.59,1.59,0,0,0-1.46-.66,2.75,2.75,0,0,1-1.66-.31,2.52,2.52,0,0,1-1-1.07,2.43,2.43,0,0,1,0-2.08,2,2,0,0,1,.31-.48c.09-.1.14-.14.15-.13a5.82,5.82,0,0,0-.35.66,2.35,2.35,0,0,0,.09,1.93,2.38,2.38,0,0,0,2.48,1.2,2.08,2.08,0,0,1,.94.13,2.12,2.12,0,0,1,.77.62c.41.53.67,1.13,1,1.69l3.43,5.91c.42.78.86,1.34,1.33,1.45A1.16,1.16,0,0,0,201.48,276.49Z" transform="translate(-10.37 -9.15)"/><path class="cls-11" d="M203.74,265.39a8.28,8.28,0,0,1,1.06,1.91c.59,1.24,1.41,2.87,2.21,4.83a2.17,2.17,0,0,1-.09,1.66,3.12,3.12,0,0,1-1,1.11,9.16,9.16,0,0,1-2.2,1,6.48,6.48,0,0,0-1.86,1.05c-.08,0,.42-.84,1.71-1.39a10.22,10.22,0,0,0,2.06-1,1.92,1.92,0,0,0,.89-2.23A60.64,60.64,0,0,1,203.74,265.39Z" transform="translate(-10.37 -9.15)"/><path class="cls-17" d="M258.65,273" transform="translate(-10.37 -9.15)"/><path class="cls-17" d="M216.14,265.33" transform="translate(-10.37 -9.15)"/><path class="cls-17" d="M204.49,280.28" transform="translate(-10.37 -9.15)"/><path class="cls-8" d="M196.36,241.85s14.35-13.17,17.75-22.86,3-17.44-.36-27.14c-2.22-6.41-9.44-12.38-15.83-14.64a50,50,0,0,1,7-3.94s16.2,9,18.59,26C226.61,221.66,218.49,239.25,196.36,241.85Z" transform="translate(-10.37 -9.15)"/><path class="cls-5" d="M204.78,181.37c-5.89-3.42-8.48-3.19-8.36-3.12-3.57,2.49-7.66,7.45-7.27,17,.4,9.88,3.72,29,6.37,42.89a16.26,16.26,0,0,0,19.83,12.76l51.73-12.64-1.9-11.53-47.2.68L213,194S209.83,184.3,204.78,181.37Z" transform="translate(-10.37 -9.15)"/><path class="cls-8" d="M195.65,238.74s0,.13.13.38.17.63.34,1.11a14.83,14.83,0,0,0,2,4,13.88,13.88,0,0,0,5.46,4.4,23,23,0,0,0,9.18,1.91,33.53,33.53,0,0,0,5.49-.33c.95-.13,1.88-.42,2.86-.65l3-.75,12.94-3.26L267,238l-.19.3c-.41-2.47-.84-5.1-1.28-7.76-.21-1.27-.41-2.53-.62-3.77l.26.22-47.2.63h-.18l0-.18c-.88-5.31-1.46-10.17-2-14.46s-1-8-1.44-11-.88-5.39-1.19-7c-.15-.78-.27-1.39-.35-1.82s-.1-.63-.1-.63.06.2.16.61l.42,1.82c.34,1.59.81,4,1.3,7s1,6.74,1.54,11,1.15,9.14,2.06,14.43l-.21-.17,47.19-.73h.23l0,.22c.21,1.24.42,2.51.63,3.78.43,2.66.87,5.28,1.27,7.75l0,.24-.23.06L237.2,246l-13,3.21-3,.74c-1,.22-1.93.52-2.9.64a32.25,32.25,0,0,1-5.56.3,23.4,23.4,0,0,1-9.29-2,14,14,0,0,1-5.5-4.53,14.69,14.69,0,0,1-2-4.05c-.15-.49-.23-.87-.29-1.13A1.5,1.5,0,0,1,195.65,238.74Z" transform="translate(-10.37 -9.15)"/><path class="cls-11" d="M241.15,227.22h0l63.77-1.31a4.7,4.7,0,0,0,4.57-4.08l3.44-25.38a4.72,4.72,0,0,0-4.67-5.34l-34,0a4.71,4.71,0,0,0-4.69,4.29l-2.25,25L244,224A3.31,3.31,0,0,0,241.15,227.22Z" transform="translate(-10.37 -9.15)"/><path class="cls-3" d="M281.5,200.83c-.4.32-7.43,9.86-7.43,9.86l3.25-.38-2.65,7.55,8.77-11-3.27,0Z" transform="translate(-10.37 -9.15)"/><path class="cls-5" d="M280.7,202.41c-.39.31-5.5,7.57-5.5,7.57l2.92-.37-2.92,7.19,7.11-9.44h-2.85Z" transform="translate(-10.37 -9.15)"/><circle class="cls-3" cx="265.44" cy="191.86" r="2.35"/><circle class="cls-8" cx="265.44" cy="191.86" r="2.08"/><circle class="cls-3" cx="281.95" cy="200.01" r="1.88"/><text class="cls-18" transform="translate(0 485.01) scale(1.02 1)">B<tspan class="cls-19" x="38.62" y="0">A</tspan><tspan class="cls-20" x="78.73" y="0">CK</tspan><tspan class="cls-21" x="156.74" y="0">P</tspan><tspan class="cls-19" x="190.52" y="0">A</tspan><tspan x="230.62" y="0">CKERS</tspan></text></g><g id="Plants"><path class="cls-5" d="M381,412.18c-.76-3,1.24-6,3.46-8.21s4.9-4.12,6.07-7c1.89-4.68-.59-10.76,2.62-14.65,1.89-2.29,5.26-3,6.94-5.49a12.6,12.6,0,0,0,1.52-4.39,44.72,44.72,0,0,1,11.22-20.7,38.72,38.72,0,0,1-4.47,20c-1.3,2.45-2.9,4.84-3.35,7.58-.72,4.45,1.74,9.06.62,13.43-1.28,5-6.92,8.31-7.21,13.46-.25,4.36,3.52,8.2,3.21,12.55a11.86,11.86,0,0,1-2,5.16c-3.4,5.57-8.37,9.4-15.87,9.23l-9.18.27Z" transform="translate(-10.37 -9.15)"/><g class="cls-22"><path d="M381,412.18c-.76-3,1.24-6,3.46-8.21s4.9-4.12,6.07-7c1.89-4.68-.59-10.76,2.62-14.65,1.89-2.29,5.26-3,6.94-5.49a12.6,12.6,0,0,0,1.52-4.39,44.72,44.72,0,0,1,11.22-20.7,38.72,38.72,0,0,1-4.47,20c-1.3,2.45-2.9,4.84-3.35,7.58-.72,4.45,1.74,9.06.62,13.43-1.28,5-6.92,8.31-7.21,13.46-.25,4.36,3.52,8.2,3.21,12.55a11.86,11.86,0,0,1-2,5.16c-3.4,5.57-8.37,9.4-15.87,9.23l-9.18.27Z" transform="translate(-10.37 -9.15)"/></g><path class="cls-8" d="M372.77,433.63a7.34,7.34,0,0,1-2.52-.06,15.45,15.45,0,0,1-3-.77,12.89,12.89,0,0,1-3.68-2,5.19,5.19,0,0,1-1.5-2,9.48,9.48,0,0,1-.42-2.75,25.4,25.4,0,0,0-.2-3,8.28,8.28,0,0,0-1.1-3c-1.07-1.91-2.86-3.72-3.43-6.3s-.15-5.3.3-8.05.87-5.76-.17-8.63-3-5.48-4-8.73-.49-6.79-.68-10.26a13.79,13.79,0,0,0-1.17-5.11c-.74-1.63-1.76-3.16-2.55-4.88-1.61-3.47-1.88-7.39-2.3-11.24-.21-1.94-.42-3.89-.63-5.87a28.57,28.57,0,0,0-1-5.88,51.46,51.46,0,0,0-2.16-5.7,18.6,18.6,0,0,1-1.05-3,31.14,31.14,0,0,1-.28-3.16,37.68,37.68,0,0,1,.28-6.36c.26-2.11.66-4.21.9-6.34,0-.12,0-.25,0-.36l.05-.42.38.19a14.17,14.17,0,0,1,4.92,4.2,22.49,22.49,0,0,1,3,5.61c1.51,4,2,8.09,2.79,12s1.71,7.84,3.72,11.13c1,1.64,2.2,3.14,3.26,4.75a13,13,0,0,1,2.25,5.24c.52,3.89-1.64,7.29-1.22,10.73a12.06,12.06,0,0,0,1.65,4.78c.83,1.47,1.8,2.84,2.72,4.21a27,27,0,0,1,2.44,4.25,13.52,13.52,0,0,1,1.11,4.61c.2,3.1-.25,6,0,8.81a20.29,20.29,0,0,0,2.22,7.56c1.1,2.27,2.32,4.32,3.35,6.31a31.92,31.92,0,0,1,1.37,2.93,14,14,0,0,1,.79,2.91,18.45,18.45,0,0,1,0,5.24,13.28,13.28,0,0,1-2.66,6.67,6.63,6.63,0,0,1-.75.8,3.57,3.57,0,0,1-.61.51c-.34.25-.53.36-.53.36a11.05,11.05,0,0,0,1.79-1.74,13.25,13.25,0,0,0,2.53-6.63,18.06,18.06,0,0,0-.08-5.17,14.28,14.28,0,0,0-.8-2.84c-.39-.95-.87-1.91-1.38-2.89-1-2-2.27-4-3.4-6.29a20.73,20.73,0,0,1-2.3-7.7c-.22-2.83.22-5.78,0-8.8a12.73,12.73,0,0,0-1.08-4.46,27.07,27.07,0,0,0-2.41-4.17c-.92-1.36-1.91-2.73-2.76-4.23a12.37,12.37,0,0,1-1.72-5c-.42-3.66,1.72-7.08,1.19-10.7a12.5,12.5,0,0,0-2.17-5c-1-1.57-2.26-3.07-3.29-4.75a33.35,33.35,0,0,1-3.79-11.32c-.76-4-1.29-8.07-2.78-11.94a21.66,21.66,0,0,0-2.92-5.47,13.6,13.6,0,0,0-4.72-4l.43-.23c0,.12,0,.25,0,.37-.25,2.15-.64,4.25-.9,6.35a36.51,36.51,0,0,0-.28,6.26,30.28,30.28,0,0,0,.26,3.06,18.56,18.56,0,0,0,1,2.87,54.06,54.06,0,0,1,2.18,5.76,28.86,28.86,0,0,1,1,6c.21,2,.41,3.93.62,5.87.41,3.86.68,7.72,2.23,11.07.77,1.67,1.79,3.21,2.54,4.9a14.09,14.09,0,0,1,1.2,5.29c.18,3.55-.3,7,.64,10.15s2.93,5.75,3.92,8.72.6,6.1.15,8.84-.92,5.45-.34,7.9,2.25,4.26,3.34,6.23a8.53,8.53,0,0,1,1.13,3.07,26.54,26.54,0,0,1,.17,3,9,9,0,0,0,.38,2.67,4.81,4.81,0,0,0,1.41,1.94,12.55,12.55,0,0,0,3.59,2.05,15.54,15.54,0,0,0,2.94.82,12.67,12.67,0,0,0,1.86.19Z" transform="translate(-10.37 -9.15)"/><path class="cls-8" d="M344.37,325.28s0,.09.09.27.12.5.2.83c.17.73.38,1.82.72,3.19s1.18,2.9,1.88,4.8,1.47,4.08,2.15,6.53,1.29,5.18,1.92,8.09a33.7,33.7,0,0,0,2.89,9c.74,1.5,1.58,3,2.25,4.67a21.62,21.62,0,0,1,1.29,5.27,106.82,106.82,0,0,0,1.92,11.13c1.79,7.53,3.51,14.71,5.07,21.25s3,12.38,4.25,17.33,2.14,8.89,2.82,11.7l.74,3.18c.07.34.13.61.17.84a.85.85,0,0,1,0,.28s0-.09-.09-.27-.14-.49-.24-.82c-.2-.77-.49-1.82-.84-3.16-.72-2.8-1.75-6.77-3-11.65s-2.74-10.8-4.38-17.3-3.31-13.72-5.12-21.26A104.86,104.86,0,0,1,357.19,368a21.2,21.2,0,0,0-1.25-5.15c-.64-1.61-1.46-3.12-2.21-4.63a34.32,34.32,0,0,1-2.88-9.12c-.61-2.93-1.19-5.64-1.85-8.09s-1.35-4.63-2.05-6.52-1.46-3.46-1.79-4.87-.48-2.48-.62-3.21c-.06-.34-.1-.62-.14-.84A1.06,1.06,0,0,1,344.37,325.28Z" transform="translate(-10.37 -9.15)"/><path class="cls-5" d="M371.15,433.65c-6-3.6-7.64-14.43-5.1-20.93s7-12.43,7.67-19.37c.55-5.33-1.17-10.82.11-16,1.72-7,8.62-12.44,8.58-19.68,0-4.07-2.31-7.9-2.1-12,.25-5,4.1-8.9,6.49-13.27,3.66-6.69,3.94-14.63,5.22-22.15s4.2-15.56,10.89-19.22c.95,6.4,2.6,10.78,2,19.43-.21,3.11-3.86,9-4.39,15.85-.31,4.07-.54,8.15-.81,12.22s-.55,8-2,11.7c-1.1,2.84-2.87,5.41-3.69,8.34-1.56,5.51.41,11.51-.85,17.09-1.07,4.74-4.37,8.8-5.07,13.6-1,6.75,3.35,13.79,1.08,20.21-1.13,3.19-3.77,5.74-4.54,9-.59,2.56,0,5.27-.52,7.84-.86,4.14-8.79,7.58-13,7.3" transform="translate(-10.37 -9.15)"/><path class="cls-8" d="M401.22,297.37a1.64,1.64,0,0,1,0,.36c0,.26-.08.61-.14,1-.14.92-.31,2.27-.63,4s-1.26,3.74-2,6.13-1.56,5.12-2.25,8.2-1.29,6.48-1.91,10.14-1.3,7.65-3.14,11.46c-.86,1.91-1.81,3.83-2.53,5.87a25.89,25.89,0,0,0-1.3,6.47,133.3,133.3,0,0,1-1.84,14l-5.33,26.66c-1.73,8.16-3.28,15.52-4.59,21.71s-2.39,11.13-3.15,14.63c-.37,1.69-.67,3-.88,4-.1.42-.18.76-.24,1a1.2,1.2,0,0,1-.11.34,1.85,1.85,0,0,1,.05-.35c.05-.27.11-.61.18-1,.19-1,.45-2.29.78-4,.71-3.5,1.72-8.5,3-14.67s2.79-13.56,4.46-21.74,3.41-17.2,5.29-26.65A131.36,131.36,0,0,0,386.71,351a26.42,26.42,0,0,1,1.35-6.6c.74-2.09,1.71-4,2.56-5.9,1.83-3.75,2.49-7.68,3.15-11.33s1.26-7.06,2-10.14a83.57,83.57,0,0,1,2.34-8.22c.77-2.39,1.72-4.35,2.09-6.07s.55-3.08.73-4c.08-.43.15-.78.2-1A1.35,1.35,0,0,1,401.22,297.37Z" transform="translate(-10.37 -9.15)"/><path class="cls-5" d="M90.65,392.23c1.93,2.69,5.61,1.76,7.3.09s2.4-4.08,3-6.38c1.45-5.24,2.92-10.74,1.75-16.05a8.91,8.91,0,0,0-2.09-4.34,4.64,4.64,0,0,0-4.43-1.43c-1.86.51-3,2.34-3.82,4.09a38.26,38.26,0,0,0-3.61,16.44c0,2.64.35,5.41,1.86,7.58" transform="translate(-10.37 -9.15)"/><path class="cls-5" d="M97.9,405.9a16.39,16.39,0,0,1,10.2-1.34,8.47,8.47,0,0,1,5.07,2.2c1.27,1.38,1.53,3.83.1,5a4.86,4.86,0,0,1-3.18.83c-2.7,0-5.7-.45-7.84,1.2-1.22.93-2,2.48-3.49,2.95a3.47,3.47,0,0,1-3.84-1.66,6,6,0,0,1-.48-4.39A6.7,6.7,0,0,1,97.9,405.9Z" transform="translate(-10.37 -9.15)"/><path class="cls-5" d="M85.47,396.17a9.86,9.86,0,0,0,1.45-9.1,17.52,17.52,0,0,0-5.45-7.75,29,29,0,0,0-9.69-5.59,10.29,10.29,0,0,0-4.34-.7,4.6,4.6,0,0,0-3.62,2.24c-1,1.94,0,4.28,1.07,6.18A74.45,74.45,0,0,0,71.31,391c1.92,2.42,4.12,4.81,7,5.89s5.9.92,7.42-1.1" transform="translate(-10.37 -9.15)"/><path class="cls-8" d="M90.92,433.15a6.42,6.42,0,0,0,.16-1.24c.08-.89.17-2,.29-3.36s.34-3.11.71-4.95a38.75,38.75,0,0,1,1.74-5.84,21.53,21.53,0,0,1,2.92-5.29,11.21,11.21,0,0,1,3.73-3.17,10.57,10.57,0,0,1,3.16-1,6.51,6.51,0,0,0,1.22-.19,5.23,5.23,0,0,0-1.25,0,9.68,9.68,0,0,0-3.29.89,11.14,11.14,0,0,0-3.93,3.19,21.32,21.32,0,0,0-3,5.41,36,36,0,0,0-1.72,5.93,43.37,43.37,0,0,0-.61,5c-.09,1.43-.12,2.58-.13,3.38A5.34,5.34,0,0,0,90.92,433.15Z" transform="translate(-10.37 -9.15)"/><path class="cls-8" d="M91.12,430.56a2.17,2.17,0,0,0,0-.58c0-.43,0-1,0-1.63,0-1.42,0-3.47,0-6,.07-5.08.44-12.08,1.21-19.79s1.84-14.64,2.82-19.62c.23-1.25.46-2.37.68-3.35s.39-1.84.56-2.53l.37-1.59a3.26,3.26,0,0,0,.1-.57,2.1,2.1,0,0,0-.2.54L96.23,377c-.2.69-.41,1.53-.65,2.51s-.5,2.1-.76,3.35a184.37,184.37,0,0,0-3,19.64,198.32,198.32,0,0,0-1.07,19.84c0,2.54.07,4.6.14,6,0,.66.09,1.2.12,1.63A3.35,3.35,0,0,0,91.12,430.56Z" transform="translate(-10.37 -9.15)"/><path class="cls-8" d="M91,417a12.34,12.34,0,0,0,0-1.71,46,46,0,0,0-.57-4.62A62.78,62.78,0,0,0,88.86,404,58.76,58.76,0,0,0,86,396a42.43,42.43,0,0,0-8.4-12.82,21.61,21.61,0,0,0-2-1.79c-.3-.25-.57-.5-.84-.7l-.76-.51a10.93,10.93,0,0,0-1.45-.91,49.8,49.8,0,0,1,4.76,4.16,44.84,44.84,0,0,1,8.2,12.77,64.66,64.66,0,0,1,2.91,7.88c.76,2.47,1.28,4.75,1.67,6.66s.59,3.49.72,4.58A9.65,9.65,0,0,0,91,417Z" transform="translate(-10.37 -9.15)"/></g></svg>